<?xml version="1.0" encoding="UTF-8"?>
<svg id="Layer_2" data-name="Layer 2" xmlns="http://www.w3.org/2000/svg" viewBox="0 0 87 87">
  <defs>
    <style>
      .cls-1 {
        fill: #07cb79;
      }

      .cls-1, .cls-2 {
        fill-rule: evenodd;
        stroke-width: 0px;
      }

      .cls-2 {
        fill: #fff;
      }
    </style>
  </defs>
  <g id="Layer_1-2" data-name="Layer 1">
    <g>
      <path class="cls-1" d="M43.5,87c23.96,0,43.5-19.54,43.5-43.5S67.46,0,43.5,0,0,19.55,0,43.5s19.54,43.5,43.5,43.5h0Z"/>
      <path class="cls-2" d="M50.16,42.78c6.64,3.18,11.33,10.96,11.33,20.06H25.5c0-9.1,4.69-16.88,11.33-20.06,1.87,1.37,4.17,2.17,6.66,2.17s4.79-.8,6.66-2.17h0Z"/>
      <path class="cls-2" d="M43.5,43.1c5.21,0,9.46-4.25,9.46-9.46s-4.25-9.46-9.46-9.46-9.46,4.25-9.46,9.46,4.25,9.46,9.46,9.46h0Z"/>
    </g>
  </g>
</svg>