<?xml version="1.0" encoding="UTF-8"?>
<svg id="Layer_2" data-name="Layer 2" xmlns="http://www.w3.org/2000/svg" viewBox="0 0 87 87">
  <defs>
    <style>
      .cls-1 {
        fill: #07cb79;
        fill-rule: evenodd;
      }

      .cls-1, .cls-2 {
        stroke-width: 0px;
      }

      .cls-2 {
        fill: #fff;
      }
    </style>
  </defs>
  <g id="Layer_1-2" data-name="Layer 1">
    <g>
      <path class="cls-1" d="M43.5,87c23.96,0,43.5-19.54,43.5-43.5S67.46,0,43.5,0,0,19.55,0,43.5s19.54,43.5,43.5,43.5h0Z"/>
      <g>
        <path class="cls-2" d="M58.54,27.17h0c-.4.35-.8.66-1.22.92-.05.03-.09.06-.14.09-.18.11-.37.21-.55.31-.05.03-.11.06-.16.09-.19.09-.39.18-.58.26-.05.02-.1.04-.15.06-.21.08-.42.15-.64.21-.04.01-.07.02-.11.03-.24.06-.48.12-.73.16-.01,0-.03,0-.04,0-.53.09-1.08.14-1.64.14-2.83,0-5.84-1.16-8.75-2.28-2.91-1.12-5.93-2.28-8.76-2.28h0c-.47,0-.92.04-1.37.1-.07,0-.13.01-.2.03-.18.03-.36.07-.54.11-.08.02-.15.03-.23.05-.18.05-.36.11-.53.16-.07.02-.15.05-.22.07-.18.07-.36.15-.54.23-.06.03-.13.05-.19.08-.2.09-.39.2-.58.31-.05.03-.09.05-.14.08-.23.14-.45.29-.67.45-.01,0-.02.02-.04.02-.24.18-.48.37-.71.57l2.08,17.96h0c.4-.36.81-.67,1.24-.94.04-.02.07-.05.11-.07.19-.12.38-.22.57-.32.05-.03.1-.05.14-.08.19-.1.39-.18.59-.26.05-.02.09-.04.14-.06.21-.08.42-.15.63-.21.04-.01.08-.03.11-.04.23-.06.47-.12.71-.16.02,0,.04,0,.06-.01.53-.09,1.07-.14,1.63-.14,2.82,0,5.82,1.16,8.72,2.28,2.9,1.12,5.9,2.28,8.71,2.28.47,0,.93-.04,1.37-.11.06,0,.12-.01.18-.02.19-.03.37-.07.55-.12.07-.02.15-.03.22-.05.18-.05.36-.11.53-.17.07-.02.14-.04.22-.07.19-.07.37-.15.55-.23.06-.03.12-.05.18-.08.2-.1.4-.21.59-.32.04-.03.09-.05.13-.07.23-.14.46-.29.69-.46,0,0,.01,0,.02-.01.24-.18.48-.37.71-.58l-1.95-17.96Z"/>
        <path class="cls-2" d="M28.4,27.31c-.06-.52-.53-.94-1.06-.94s-.9.42-.84.94l3.95,33.85c.06.52.53.94,1.05.94s.89-.42.83-.94l-3.93-33.85Z"/>
      </g>
    </g>
  </g>
</svg>