<?xml version="1.0" encoding="UTF-8"?>
<svg id="Layer_2" data-name="Layer 2" xmlns="http://www.w3.org/2000/svg" viewBox="0 0 87 87">
  <defs>
    <style>
      .cls-1 {
        fill: #07cb79;
        fill-rule: evenodd;
      }

      .cls-1, .cls-2 {
        stroke-width: 0px;
      }

      .cls-2 {
        fill: #fff;
      }
    </style>
  </defs>
  <g id="Layer_1-2" data-name="Layer 1">
    <g>
      <path class="cls-1" d="M43.5,87c23.96,0,43.5-19.54,43.5-43.5S67.46,0,43.5,0,0,19.55,0,43.5s19.54,43.5,43.5,43.5h0Z"/>
      <path class="cls-2" d="M35.23,24.42c.72-.04,1.27.47,1.42,1.05.05.18.04.37.04.58,0,1.25,0,2.44,0,3.7,0,.21.01.42-.02.59-.11.61-.62,1.13-1.32,1.15-.75.02-1.26-.45-1.42-1.05-.09-.33-.05-.77-.05-1.19,0-1.06,0-2.02,0-3.09,0-.21-.01-.41.02-.59.09-.49.4-.85.82-1.04.16-.07.32-.11.51-.12ZM51.16,24.54c-.42.19-.73.54-.81,1.04-.03.18-.02.38-.02.59,0,1.07,0,2.03,0,3.09,0,.42-.04.85.05,1.19.16.6.67,1.07,1.43,1.04.69-.02,1.21-.54,1.32-1.15.03-.18.02-.39.02-.59,0-1.07,0-2.02,0-3.09,0-.42.05-.84-.05-1.19-.08-.31-.25-.57-.48-.75-.23-.18-.59-.32-.94-.3-.18.01-.35.05-.51.12ZM31,26.94c-.81,0-1.71-.04-2.39.09-.74.14-1.32.42-1.86.78-1.03.68-1.82,1.75-2.12,3.16-.1.5-.11,1.05-.11,1.65,0,1.15,0,2.33,0,3.53,12.64.02,25.3,0,37.95,0,0,0,0-.01,0-.02,0-1.09,0-2.16,0-3.23,0-.36.02-.72,0-1.08-.06-1.35-.55-2.33-1.2-3.11-.66-.78-1.53-1.38-2.66-1.65-1.17-.28-2.78-.09-4.17-.14v.02c0,1.06,0,2.18,0,3.22,0,.33-.07.63-.18.9-.2.51-.51.92-.92,1.22-.4.3-.93.53-1.61.53-.68,0-1.21-.23-1.61-.53-.6-.45-1.08-1.13-1.11-2.12-.03-1.06.02-2.17,0-3.23h0c-3.67-.01-7.34-.01-11.01-.01v2.24c0,.37.01.73,0,1.07-.02.34-.08.63-.19.89-.2.5-.53.91-.94,1.2-.4.29-.98.53-1.63.5-.65-.03-1.16-.23-1.58-.55-.41-.31-.73-.73-.91-1.24-.1-.28-.15-.56-.16-.9-.05-1.05.03-2.14,0-3.22h-1.57ZM24.52,38.24c0,6.33,0,12.61,0,18.94,0,.46.02.88.09,1.26.21,1.13.72,1.98,1.4,2.66.67.67,1.54,1.2,2.66,1.4.38.07.81.08,1.28.08,9.05,0,18.04,0,27.06,0,.46,0,.89,0,1.28-.07.38-.07.73-.17,1.05-.31.95-.4,1.7-1.01,2.25-1.82.37-.54.66-1.15.79-1.91.07-.38.09-.8.09-1.26,0-6.22,0-12.4,0-18.61,0-.12.02-.26,0-.34,0-.03,0-.03-.01-.05-.03-.01-.11,0-.14,0-12.56,0-25.22,0-37.78,0,0,0-.01,0-.01.02ZM39.84,42.16c.59-.04,1.04.19,1.35.46.31.27.55.68.59,1.21.04.58-.18,1.03-.46,1.33-.29.32-.66.55-1.2.6-.57.05-1.04-.19-1.34-.45-.32-.28-.56-.67-.6-1.2-.05-.59.17-1.05.44-1.35.14-.15.3-.29.51-.4.2-.1.44-.18.71-.2ZM46.88,42.16c.6-.04,1.03.19,1.35.46.3.26.57.68.59,1.21.03.57-.17,1.01-.46,1.33-.28.32-.67.55-1.2.6-.55.04-1.03-.17-1.35-.45-.31-.28-.56-.68-.6-1.2-.04-.59.17-1.04.45-1.35.14-.15.3-.29.51-.4.2-.1.44-.18.71-.2ZM53.91,42.16c.59-.05,1.04.19,1.35.46.3.27.56.67.6,1.2.04.6-.18,1.02-.46,1.34-.28.32-.67.56-1.2.6-.55.04-1.03-.17-1.34-.45-.32-.29-.56-.68-.6-1.2-.05-.59.18-1.03.45-1.34.26-.3.67-.56,1.21-.61ZM32.83,48.61c.58-.04,1.05.2,1.34.46.3.28.54.69.58,1.22.04.59-.19,1.02-.46,1.33-.29.32-.68.55-1.22.59-.58.04-1.02-.19-1.33-.46-.33-.29-.55-.67-.59-1.21-.04-.59.18-1.02.46-1.33.14-.15.29-.29.51-.4.2-.1.45-.18.72-.2ZM39.86,48.61c.59-.04,1.03.2,1.33.47.31.27.55.68.59,1.22.04.58-.19,1.02-.46,1.33-.28.32-.68.55-1.22.59-.55.04-1.03-.17-1.33-.46-.31-.28-.56-.69-.59-1.21-.04-.6.18-1.03.46-1.34.14-.15.29-.28.51-.4.19-.1.45-.18.72-.2ZM46.89,48.61c.59-.04,1.03.2,1.34.47.3.27.56.68.59,1.22.03.57-.18,1.01-.46,1.32-.3.32-.66.55-1.21.59-.55.04-1.03-.17-1.34-.46-.31-.28-.56-.68-.59-1.21-.03-.58.18-1.04.46-1.34.14-.15.3-.29.51-.4.19-.1.45-.18.72-.2ZM53.93,48.61c.57-.04,1.05.19,1.34.46.3.28.56.69.59,1.22.03.6-.18,1.02-.47,1.33-.29.32-.68.54-1.22.59-.57.04-1.01-.19-1.33-.46-.32-.28-.55-.68-.59-1.21-.04-.59.19-1.03.46-1.33.13-.15.3-.29.51-.4.2-.1.45-.18.72-.2ZM32.84,55.06c.57-.04,1.04.21,1.33.47.29.27.55.7.58,1.22.04.59-.2,1.03-.48,1.33-.29.31-.68.55-1.22.59-.56.04-1.03-.19-1.33-.47-.31-.28-.55-.69-.59-1.22-.04-.6.19-1.02.47-1.33.14-.16.3-.28.51-.39.2-.1.44-.18.72-.2ZM39.88,55.06c.59-.04,1.03.21,1.33.48.31.28.54.68.58,1.22.04.58-.19,1.01-.47,1.32-.28.31-.68.55-1.22.59-.55.04-1.03-.18-1.33-.47-.31-.28-.56-.69-.59-1.22-.03-.61.18-1.03.47-1.33.14-.15.3-.28.51-.39.2-.1.44-.18.72-.2ZM46.91,55.06c.57-.04,1.05.2,1.33.48.29.28.54.68.57,1.23.03.58-.19,1-.48,1.32-.28.31-.69.56-1.22.59-.57.03-1.02-.19-1.33-.48-.32-.28-.55-.69-.58-1.22-.03-.58.18-1.02.47-1.32.14-.16.3-.28.51-.39.2-.1.44-.18.72-.2Z"/>
    </g>
  </g>
</svg>