<?xml version="1.0" encoding="UTF-8"?>
<svg id="Layer_2" data-name="Layer 2" xmlns="http://www.w3.org/2000/svg" viewBox="0 0 87 87">
  <defs>
    <style>
      .cls-1 {
        fill: #07cb79;
      }

      .cls-1, .cls-2 {
        fill-rule: evenodd;
      }

      .cls-1, .cls-2, .cls-3 {
        stroke-width: 0px;
      }

      .cls-2, .cls-3 {
        fill: #fff;
      }
    </style>
  </defs>
  <g id="Layer_1-2" data-name="Layer 1">
    <g>
      <path class="cls-1" d="M43.5,87c23.96,0,43.5-19.54,43.5-43.5S67.46,0,43.5,0,0,19.55,0,43.5s19.54,43.5,43.5,43.5h0Z"/>
      <path class="cls-3" d="M48.2,53.39h.03c2.69.36,4.99,1.02,6.62,1.87,1.71.89,2.72,2.02,2.72,3.28,0,1.61-1.65,3.01-4.31,3.98-2.5.91-5.95,1.48-9.75,1.48s-7.25-.56-9.75-1.48c-2.66-.97-4.31-2.37-4.31-3.98,0-1.26,1-2.4,2.72-3.29,1.63-.85,3.94-1.5,6.64-1.86l.14,1.03c-2.57.34-4.76.96-6.29,1.76-1.36.71-2.15,1.52-2.15,2.36,0,1.12,1.38,2.18,3.62,3,2.39.87,5.71,1.41,9.39,1.41s7-.54,9.39-1.41c2.24-.82,3.62-1.88,3.62-3,0-.83-.79-1.65-2.15-2.36-1.52-.79-3.71-1.41-6.27-1.76h-.03s.14-1.04.14-1.04Z"/>
      <path class="cls-2" d="M43.5,58.54c3.56-6.17,11.12-18.25,11.12-24.4s-4.98-11.12-11.12-11.12-11.12,4.98-11.12,11.12,7.56,18.23,11.12,24.4h0ZM49.61,34.17c0,3.37-2.73,6.1-6.1,6.1s-6.11-2.73-6.11-6.1,2.73-6.11,6.11-6.11,6.1,2.73,6.1,6.11h0Z"/>
    </g>
  </g>
</svg>