<?xml version="1.0" encoding="UTF-8"?>
<svg id="Layer_2" data-name="Layer 2" xmlns="http://www.w3.org/2000/svg" viewBox="0 0 87 87">
  <defs>
    <style>
      .cls-1 {
        fill: #07cb79;
      }

      .cls-1, .cls-2 {
        fill-rule: evenodd;
      }

      .cls-1, .cls-2, .cls-3 {
        stroke-width: 0px;
      }

      .cls-2, .cls-3 {
        fill: #fff;
      }
    </style>
  </defs>
  <g id="Layer_1-2" data-name="Layer 1">
    <g>
      <path class="cls-1" d="M43.5,87c23.96,0,43.5-19.54,43.5-43.5S67.46,0,43.5,0,0,19.54,0,43.5s19.54,43.5,43.5,43.5h0Z"/>
      <path class="cls-3" d="M42.38,36.32c-.64-.05-1.12-.6-1.07-1.24.05-.64.6-1.12,1.24-1.07,3.2.23,5.69,1.23,7.45,2.99,1.76,1.76,2.76,4.25,2.99,7.45.05.64-.43,1.19-1.07,1.24-.64.05-1.19-.44-1.24-1.07-.19-2.62-.96-4.62-2.32-5.98-1.36-1.36-3.35-2.14-5.98-2.32h0Z"/>
      <path class="cls-3" d="M42.19,31.82c-.64-.05-1.12-.6-1.07-1.24.05-.64.6-1.12,1.24-1.07,4.66.33,8.27,1.77,10.81,4.32,2.55,2.55,3.98,6.15,4.32,10.81.05.64-.43,1.19-1.07,1.24-.64.05-1.19-.43-1.24-1.07-.29-4.08-1.51-7.19-3.65-9.33-2.14-2.14-5.25-3.36-9.33-3.65h0Z"/>
      <path class="cls-3" d="M42.01,27.32c-.64-.05-1.12-.6-1.07-1.24.05-.64.6-1.12,1.24-1.07,12.33.88,18.94,7.49,19.82,19.82.05.64-.44,1.19-1.07,1.24-.64.05-1.19-.43-1.24-1.07-.79-10.99-6.68-16.89-17.67-17.67h0Z"/>
      <path class="cls-2" d="M38.25,48.75c-3.64-4.1-5.9-5.95-1.84-9.08,1.27-1.06.36-2.79,0-3.95l-1.98-6.24c-1.92-3.35-19.82,3.37-.62,23.72,20.35,19.2,27.07,1.3,23.72-.62l-6.24-1.98c-1.17-.37-2.9-1.27-3.95,0-3.14,4.07-4.99,1.81-9.09-1.84h0Z"/>
    </g>
  </g>
</svg>