<?xml version="1.0" encoding="UTF-8"?>
<svg id="Layer_2" data-name="Layer 2" xmlns="http://www.w3.org/2000/svg" viewBox="0 0 87 87">
  <defs>
    <style>
      .cls-1 {
        fill: #07cb79;
        fill-rule: evenodd;
      }

      .cls-1, .cls-2 {
        stroke-width: 0px;
      }

      .cls-2 {
        fill: #fff;
      }
    </style>
  </defs>
  <g id="Layer_1-2" data-name="Layer 1">
    <g>
      <path class="cls-1" d="M43.5,87c23.96,0,43.5-19.54,43.5-43.5S67.46,0,43.5,0,0,19.55,0,43.5s19.54,43.5,43.5,43.5h0Z"/>
      <g>
        <path class="cls-2" d="M28.38,30.21l12.35,14.01c.7.8,1.71,1.25,2.78,1.25s2.07-.46,2.78-1.25l12.13-13.77c.1-.11.22-.2.34-.27-.51-.23-1.08-.35-1.68-.35h-27.15c-.57,0-1.12.12-1.61.32.02.02.04.04.06.06Z"/>
        <path class="cls-2" d="M60.62,31.79c-.05.14-.13.28-.24.4l-12.13,13.77c-1.2,1.36-2.93,2.15-4.75,2.15s-3.55-.78-4.75-2.15l-12.35-14.01s-.04-.06-.06-.09c-.38.63-.6,1.37-.6,2.16v18.96c0,2.32,1.88,4.19,4.19,4.19h27.15c2.32,0,4.19-1.88,4.19-4.19v-18.96c0-.82-.24-1.58-.65-2.23Z"/>
      </g>
    </g>
  </g>
</svg>