<?xml version="1.0" encoding="UTF-8"?>
<svg id="Layer_2" data-name="Layer 2" xmlns="http://www.w3.org/2000/svg" viewBox="0 0 45 45">
  <defs>
    <style>
      .cls-1 {
        fill: #999;
      }

      .cls-1, .cls-2 {
        stroke-width: 0px;
      }

      .cls-2 {
        fill: #fff;
      }
    </style>
  </defs>
  <g id="Layer_1-2" data-name="Layer 1">
    <g>
      <path class="cls-1" d="M22.5,0C10.07,0,0,10.07,0,22.5c0,9.15,5.47,17.01,13.32,20.53-.03-.63-.05-1.26-.03-1.9.07-2.19.34-2.94,3.16-14.8.04-.18,0-.33-.07-.49-.67-1.82-.81-3.67-.22-5.54,1.28-4.05,5.86-4.36,6.67-1.02.49,2.06-.81,4.77-1.82,8.76-.83,3.3,3.05,5.64,6.36,3.23,3.06-2.22,4.24-7.53,4.02-11.3-.44-7.51-8.68-9.14-13.91-6.72-5.99,2.77-7.35,10.2-4.65,13.59.34.43.61.7.49,1.13-.17.68-.33,1.36-.52,2.04-.14.5-.56.69-1.07.48-1-.4-1.83-1.04-2.5-1.87-2.3-2.85-2.95-8.47.08-13.24,3.37-5.28,9.63-7.41,15.34-6.77,6.83.78,11.14,5.44,11.95,10.73.37,2.41.1,8.35-3.28,12.56-3.89,4.83-10.2,5.15-13.11,2.18-.22-.23-.4-.49-.62-.76-.03.11-.06.2-.09.29-1.4,5.48-1.55,6.69-2.99,9.23-.22.39-.47.76-.71,1.14,2.11.66,4.35,1.01,6.68,1.01,12.43,0,22.5-10.07,22.5-22.5S34.93,0,22.5,0Z"/>
      <path class="cls-2" d="M19.52,33.61c.02-.09.05-.18.09-.29.22.27.4.54.62.76,2.91,2.96,9.22,2.64,13.11-2.18,3.38-4.2,3.65-10.15,3.28-12.56-.81-5.29-5.12-9.96-11.95-10.73-5.72-.65-11.98,1.49-15.34,6.77-3.04,4.76-2.38,10.39-.08,13.24.67.84,1.5,1.47,2.5,1.87.51.21.93.02,1.07-.48.19-.68.34-1.36.52-2.04.11-.44-.15-.7-.49-1.13-2.71-3.39-1.34-10.82,4.65-13.59,5.23-2.42,13.47-.8,13.91,6.72.23,3.77-.96,9.09-4.02,11.3-3.32,2.41-7.19.06-6.36-3.23,1-3.99,2.31-6.7,1.82-8.76-.8-3.34-5.39-3.03-6.67,1.02-.59,1.87-.46,3.72.22,5.54.06.16.11.31.07.49-2.82,11.86-3.09,12.61-3.16,14.8-.02.63,0,1.27.03,1.9.81.36,1.64.7,2.5.96.24-.38.48-.75.71-1.14,1.44-2.54,1.59-3.76,2.99-9.23Z"/>
    </g>
  </g>
</svg>