<?xml version="1.0" encoding="UTF-8"?>
<svg id="Layer_2" data-name="Layer 2" xmlns="http://www.w3.org/2000/svg" viewBox="0 0 45 45">
  <defs>
    <style>
      .cls-1 {
        fill: #999;
      }

      .cls-1, .cls-2 {
        stroke-width: 0px;
      }

      .cls-2 {
        fill: #fff;
      }
    </style>
  </defs>
  <g id="Layer_1-2" data-name="Layer 1">
    <g>
      <circle class="cls-1" cx="22.5" cy="22.5" r="22.5" transform="translate(-.46 .47) rotate(-1.19)"/>
      <path class="cls-2" d="M34.93,14.79c-.78.35-1.64.57-2.48.71.4-.07.99-.79,1.22-1.08.36-.45.66-.95.82-1.5.02-.04.04-.1,0-.13-.05-.02-.09-.01-.13.01-.94.5-1.91.87-2.94,1.13-.09.02-.15,0-.2-.05-.09-.1-.17-.19-.26-.26-.43-.37-.9-.66-1.43-.87-.69-.28-1.44-.4-2.19-.35-.72.05-1.43.25-2.07.59-.64.34-1.22.8-1.67,1.37-.47.58-.82,1.27-1,2-.17.7-.16,1.4-.05,2.11.02.12,0,.13-.1.12-4.04-.6-7.39-2.05-10.11-5.15-.12-.13-.18-.13-.28.01-1.19,1.78-.61,4.65.87,6.06.2.19.4.38.62.55-.08.02-1.07-.09-1.95-.55-.12-.07-.18-.03-.19.1-.01.19,0,.37.03.58.23,1.81,1.48,3.48,3.2,4.13.2.09.43.16.65.2-.39.09-.79.15-1.91.06-.14-.03-.19.04-.14.18.84,2.29,2.66,2.98,4.02,3.37.18.03.36.03.55.07-.01.02-.02.02-.03.03-.45.69-2.02,1.2-2.75,1.46-1.33.46-2.77.67-4.17.53-.22-.03-.27-.03-.33,0-.06.04,0,.09.06.15.28.19.57.35.87.51.89.47,1.82.85,2.79,1.12,5.01,1.38,10.65.37,14.41-3.37,2.95-2.93,3.99-6.98,3.99-11.03,0-.16.19-.25.3-.33.77-.58,1.39-1.27,1.96-2.04.13-.17.13-.33.13-.39v-.02c0-.06,0-.05-.1,0Z"/>
    </g>
  </g>
</svg>