<?xml version="1.0" standalone="no"?>
<!DOCTYPE svg PUBLIC "-//W3C//DTD SVG 20010904//EN"
 "http://www.w3.org/TR/2001/REC-SVG-20010904/DTD/svg10.dtd">
<svg version="1.0" xmlns="http://www.w3.org/2000/svg"
 width="576.000000pt" height="576.000000pt" viewBox="0 0 576.000000 576.000000"
 preserveAspectRatio="xMidYMid meet">
<metadata>
Created by potrace 1.14, written by Peter Selinger 2001-2017
</metadata>
<g transform="translate(0.000000,576.000000) scale(0.100000,-0.100000)"
fill="#000000" stroke="none">
<path d="M2018 5715 c-2 -1 -48 -5 -104 -9 -55 -4 -109 -8 -120 -10 -10 -2
-48 -7 -84 -11 -103 -10 -171 -20 -212 -31 -5 -1 -13 -2 -18 -3 -6 0 29 -79
78 -174 l90 -172 -22 -40 c-13 -22 -51 -94 -86 -160 -34 -66 -80 -151 -100
-190 -21 -38 -55 -104 -77 -145 -22 -41 -60 -113 -85 -160 -103 -193 -140
-264 -238 -450 -56 -107 -106 -199 -110 -203 -4 -4 -98 -9 -208 -11 -111 -1
-204 -5 -207 -8 -3 -3 -1 -16 4 -29 6 -13 81 -224 167 -469 86 -245 186 -528
222 -630 l65 -185 1 -970 1 -970 790 0 790 0 21 -35 c32 -54 300 -494 327
-537 13 -21 27 -47 31 -57 6 -18 9 -16 28 15 24 39 267 460 306 529 14 25 31
54 38 64 13 19 38 19 844 19 456 0 830 1 830 3 0 3 -146 302 -375 769 -76 154
-165 339 -200 410 -34 72 -106 217 -158 324 -108 216 -105 194 -34 291 191
259 612 487 990 537 26 3 47 9 47 13 0 16 -74 190 -113 264 -106 205 -275 385
-450 481 -38 21 -65 41 -60 45 4 3 37 30 73 58 73 58 72 57 141 148 127 169
233 482 264 789 4 33 8 71 11 85 8 46 18 254 19 370 l0 115 -846 2 -846 1 -69
51 c-138 102 -330 178 -569 226 -69 14 -129 24 -133 23 -4 -1 -29 1 -57 5 -27
4 -70 10 -95 13 -44 5 -497 13 -502 9z m612 -179 c347 -40 605 -150 727 -311
42 -56 69 -142 89 -292 3 -26 7 -55 9 -63 1 -8 6 -35 11 -60 4 -25 8 -47 9
-50 1 -3 5 -23 9 -45 5 -22 19 -79 32 -127 123 -447 345 -720 684 -839 30 -11
68 -22 85 -25 147 -25 353 -112 440 -185 79 -66 111 -98 153 -153 51 -66 132
-203 132 -223 0 -7 -12 -15 -27 -19 -117 -25 -387 -138 -513 -216 -75 -46
-219 -159 -281 -221 -126 -125 -153 -169 -282 -457 -184 -411 -621 -1282 -796
-1584 -28 -49 -51 -90 -51 -92 0 -3 -100 -177 -105 -182 -1 -2 -83 117 -181
265 -98 147 -181 270 -184 273 -3 3 -9 13 -15 22 -17 29 -178 264 -294 428
l-109 155 32 20 c17 11 37 25 43 31 7 7 23 21 36 31 65 52 134 155 173 260 87
230 18 522 -160 671 -88 75 -264 147 -401 167 -23 3 -51 7 -64 10 -78 15 -356
21 -486 10 -178 -14 -210 -17 -216 -21 -3 -2 -11 11 -16 29 -6 18 -52 145
-103 282 -196 532 -268 745 -251 746 9 0 458 0 998 -1 l983 0 -45 76 c-25 41
-45 77 -45 79 0 2 -94 164 -120 205 -5 8 -18 31 -28 50 -11 19 -134 233 -274
475 -232 401 -424 734 -477 829 l-21 36 28 1 c15 0 43 2 62 3 19 2 89 6 155
10 66 5 121 9 123 11 6 5 475 -3 532 -9z"/>
</g>
</svg>
