<?xml version="1.0" encoding="UTF-8"?>
<svg id="Layer_2" data-name="Layer 2" xmlns="http://www.w3.org/2000/svg" viewBox="0 0 45 45">
  <defs>
    <style>
      .cls-1 {
        fill: #999;
      }

      .cls-1, .cls-2 {
        stroke-width: 0px;
      }

      .cls-2 {
        fill: #fff;
      }
    </style>
  </defs>
  <g id="Layer_1-2" data-name="Layer 1">
    <g>
      <path class="cls-1" d="M45,22.5C45,10.07,34.93,0,22.5,0S0,10.07,0,22.5c0,11.23,8.23,20.54,18.98,22.23v-15.72h-5.71v-6.5h5.71v-4.96c0-5.64,3.36-8.75,8.5-8.75,2.46,0,5.04.44,5.04.44v5.54h-2.84c-2.8,0-3.67,1.73-3.67,3.51v4.22h6.24l-1,6.5h-5.24v15.72c10.76-1.69,18.98-11,18.98-22.23Z"/>
      <path class="cls-2" d="M31.26,29l1-6.5h-6.24v-4.22c0-1.78.87-3.51,3.67-3.51h2.84v-5.54s-2.57-.44-5.04-.44c-5.14,0-8.5,3.11-8.5,8.75v4.96h-5.71v6.5h5.71v15.72c1.15.18,2.32.27,3.52.27s2.37-.09,3.52-.27v-15.72h5.24Z"/>
    </g>
  </g>
</svg>