<?xml version="1.0" encoding="UTF-8"?>
<svg id="Layer_2" data-name="Layer 2" xmlns="http://www.w3.org/2000/svg" viewBox="0 0 85.8 102.58">
  <defs>
    <style>
      .cls-1 {
        fill: #036b61;
        stroke-width: 0px;
      }
    </style>
  </defs>
  <g id="Layer_7" data-name="Layer 7">
    <path class="cls-1" d="M83.99,48.93l1.81-.31-.67-1.71c-2.68-6.85-6.86-10.72-10.97-12.51,7.71-4.33,9.57-16.7,9.57-28.45h-30.75C44.98-1.37,26.57-.57,17.47,1.21c.69,1.39,1.5,3.09,3.18,6.16h0s-13.04,24.64-13.04,24.64c0,0-6.26.03-7.6.03,1.18,3.32,7.33,20.65,8.44,24.02,0,.02,0,.03,0,.05v34.9h28.63c.12.18,7.01,11.57,7.01,11.57,0,0,6.53-11.3,6.67-11.57h30.13l-15.03-30.75c2.16-4.4,9.44-9.82,18.13-11.33ZM62.83,59.73c-2.04,5.13-11.76,24.68-15.09,30.54,0,0-3.13,5.54-3.52,6.21-.85-1.41-3.65-5.48-4.16-6.28-2.34-3.65-7.63-11.23-10.01-14.63,4-2.07,7.65-8.02,4.89-14.73-3.45-8.4-17.29-7.23-23.8-6.55-1.21-3-6.01-16.32-6.92-19.15,1.48-.03,36.09.03,36.09.03,0,0-18.03-31.15-18.24-31.61,5.79-.36,22.69-2.56,29.24,4.95.79.9,1.05,1.51,1.54,3.67.67,3.03,1.54,20.71,15.68,23.86,4.7,1.05,9.59,2.82,13.1,10.31-9.37,2.21-16.81,8.34-18.8,13.38Z"/>
  </g>
</svg>