<?xml version="1.0" encoding="UTF-8"?>
<svg id="Layer_2" data-name="Layer 2" xmlns="http://www.w3.org/2000/svg" viewBox="0 0 75.96 73.02">
  <defs>
    <style>
      .cls-1 {
        fill: #999;
        stroke-width: 0px;
      }
    </style>
  </defs>
  <g id="Layer_1-2" data-name="Layer 1">
    <path class="cls-1" d="M12.72,4c1.29,0,2.5.5,3.41,1.41.91.91,1.41,2.12,1.41,3.41v8.23c0,7.07,5.75,12.82,12.82,12.82h12.25c2.66,0,4.82,2.16,4.82,4.82v8.18c0,7.02,5.71,12.78,12.74,12.82l7.01.04c2.64.02,4.79,2.18,4.79,4.82v8.46l-67.68-.11-.26-64.9h8.7M12.72,0H0l.29,72.9,75.67.13v-12.47c0-4.85-3.92-8.79-8.76-8.82l-7.01-.04c-4.85-.03-8.76-3.97-8.76-8.82v-8.18c0-4.87-3.95-8.82-8.82-8.82h-12.25c-4.87,0-8.82-3.95-8.82-8.82v-8.23c0-4.87-3.95-8.82-8.82-8.82h0Z"/>
  </g>
</svg>