<?xml version="1.0" encoding="UTF-8"?>
<svg id="Layer_2" data-name="Layer 2" xmlns="http://www.w3.org/2000/svg" viewBox="0 0 45 45">
  <defs>
    <style>
      .cls-1 {
        fill: #999;
      }

      .cls-1, .cls-2 {
        stroke-width: 0px;
      }

      .cls-2 {
        fill: #fff;
      }
    </style>
  </defs>
  <g id="Layer_1-2" data-name="Layer 1">
    <g>
      <circle class="cls-1" cx="22.5" cy="22.5" r="22.5" transform="translate(-.46 .47) rotate(-1.19)"/>
      <g>
        <path class="cls-2" d="M29.48,13.99c-.85,0-1.55.69-1.55,1.55s.69,1.55,1.55,1.55,1.55-.69,1.55-1.55-.69-1.55-1.55-1.55Z"/>
        <path class="cls-2" d="M22.61,15.97c-3.58,0-6.5,2.91-6.5,6.5s2.91,6.5,6.5,6.5,6.5-2.91,6.5-6.5-2.91-6.5-6.5-6.5ZM22.61,26.63c-2.29,0-4.16-1.87-4.16-4.16s1.87-4.16,4.16-4.16,4.16,1.87,4.16,4.16-1.87,4.16-4.16,4.16Z"/>
        <path class="cls-2" d="M27.77,35.66h-10.53c-4.37,0-7.92-3.55-7.92-7.92v-10.53c0-4.37,3.55-7.92,7.92-7.92h10.53c4.37,0,7.92,3.55,7.92,7.92v10.53c0,4.37-3.56,7.92-7.92,7.92ZM17.23,11.76c-3,0-5.44,2.44-5.44,5.44v10.53c0,3,2.44,5.44,5.44,5.44h10.53c3,0,5.44-2.44,5.44-5.44v-10.53c0-3-2.44-5.44-5.44-5.44h-10.53Z"/>
      </g>
    </g>
  </g>
</svg>