<?xml version="1.0" encoding="UTF-8"?>
<svg id="Layer_2" data-name="Layer 2" xmlns="http://www.w3.org/2000/svg" viewBox="0 0 44.99 44.99">
  <defs>
    <style>
      .cls-1 {
        fill: #999;
      }

      .cls-1, .cls-2 {
        stroke-width: 0px;
      }

      .cls-2 {
        fill: #fff;
      }
    </style>
  </defs>
  <g id="Layer_1-2" data-name="Layer 1">
    <g>
      <circle class="cls-1" cx="22.5" cy="22.5" r="22.5" transform="translate(-6.9 34.67) rotate(-67.5)"/>
      <path class="cls-2" d="M15.51,33.72h-5.25v-16.87h5.25v16.87ZM12.88,14.54c-1.68,0-3.04-1.36-3.04-3.04s1.36-3.04,3.04-3.04,3.04,1.36,3.04,3.04c0,1.68-1.36,3.04-3.04,3.04ZM35.15,33.72h-5.24v-8.21c0-1.96-.03-4.47-2.72-4.47s-3.15,2.13-3.15,4.33v8.35h-5.24v-16.87h5.03v2.31h.07c.7-1.33,2.41-2.72,4.96-2.72,5.31,0,6.29,3.49,6.29,8.04v9.25h0Z"/>
    </g>
  </g>
</svg>