<?xml version="1.0" encoding="UTF-8"?>
<svg id="Layer_2" data-name="Layer 2" xmlns="http://www.w3.org/2000/svg" viewBox="0 0 137.76 73.4">
  <defs>
    <style>
      .cls-1 {
        fill: #999;
        stroke-width: 0px;
      }
    </style>
  </defs>
  <g id="Layer_1-2" data-name="Layer 1">
    <g>
      <path class="cls-1" d="M30.47.38v13.97c0,2.06,1.01,3.68,4.37,3.68h8.3v3.74h-8.52c-5.67,0-7.89-3.11-7.89-7.38V.38h3.74Z"/>
      <path class="cls-1" d="M48.78,21.77h-4.12l7.51-19.01c.79-2,2.25-2.76,4.5-2.76s3.68.76,4.44,2.76l7.22,19.01h-4.15l-6.5-17.21c-.19-.51-.54-.73-1.05-.73s-.86.22-1.08.73l-6.78,17.21Z"/>
      <path class="cls-1" d="M73.91.38v14.29c0,2.12,1.08,3.36,3.55,3.36h3.8c2.41,0,3.52-1.24,3.52-3.36V.38h3.68v14.58c0,4.5-2.38,6.81-6.94,6.81h-4.5c-4.56,0-6.91-2.31-6.91-6.81V.38h3.8Z"/>
      <path class="cls-1" d="M104.99.38c4.82,0,6.88,2.98,6.88,6.4,0,2.66-1.27,5.51-4.53,6.43l4.97,8.55h-4.15l-4.88-8.27h-5.58c-.35,0-.54.16-.54.54v7.73h-3.74v-8.46c0-2.41,1.01-3.39,3.36-3.39h8.33c2.12,0,2.98-1.46,2.98-2.98s-.92-2.82-2.98-2.82h-11.72V.38h11.6Z"/>
      <path class="cls-1" d="M118.21,21.77h-4.12l7.51-19.01c.79-2,2.25-2.76,4.5-2.76s3.68.76,4.44,2.76l7.22,19.01h-4.15l-6.5-17.21c-.19-.51-.54-.73-1.05-.73s-.86.22-1.08.73l-6.78,17.21Z"/>
      <path class="cls-1" d="M84.89,52.02v13.97c0,2.06,1.01,3.68,4.37,3.68h8.3v3.74h-8.52c-5.67,0-7.89-3.11-7.89-7.38v-14h3.74Z"/>
      <path class="cls-1" d="M60.35,26.25v13.97c0,2.06,1.01,3.68,4.37,3.68h55.24v3.74h-55.46c-5.67,0-7.89-3.11-7.89-7.38v-14h3.74Z"/>
      <path class="cls-1" d="M133.14,47.64v-13.97c0-2.06-1.01-3.68-4.37-3.68h-55.24v-3.74h55.46c5.67,0,7.89,3.11,7.89,7.38v14h-3.74Z"/>
      <path class="cls-1" d="M110.11,52.02v21.39h-3.74v-21.39h3.74Z"/>
      <path class="cls-1" d="M122.09,52.02v14.29c0,2.12,1.08,3.36,3.55,3.36h3.8c2.41,0,3.52-1.24,3.52-3.36v-14.29h3.68v14.58c0,4.5-2.38,6.81-6.94,6.81h-4.5c-4.56,0-6.91-2.31-6.91-6.81v-14.58h3.8Z"/>
      <path class="cls-1" d="M12.72,4.38c1.29,0,2.5.5,3.41,1.41s1.41,2.12,1.41,3.41v8.23c0,7.07,5.75,12.82,12.82,12.82h12.25c2.66,0,4.82,2.16,4.82,4.82v8.18c0,7.02,5.71,12.78,12.74,12.82l7.01.04c2.64.02,4.79,2.18,4.79,4.82v8.46l-67.68-.11-.26-64.9h8.7M12.72.38H0l.29,72.89,75.67.13v-12.47c0-4.85-3.92-8.79-8.76-8.82l-7.01-.04c-4.85-.03-8.76-3.97-8.76-8.82v-8.18c0-4.87-3.95-8.82-8.82-8.82h-12.25c-4.87,0-8.82-3.95-8.82-8.82v-8.23c0-4.87-3.95-8.82-8.82-8.82h0Z"/>
    </g>
  </g>
</svg>