<?xml version="1.0" encoding="UTF-8"?>
<svg id="Layer_2" data-name="Layer 2" xmlns="http://www.w3.org/2000/svg" viewBox="0 0 45 45">
  <defs>
    <style>
      .cls-1 {
        fill: #fff;
        stroke-width: 0px;
      }
    </style>
  </defs>
  <g id="Layer_1-2" data-name="Layer 1">
    <path class="cls-1" d="M22.5,0C10.07,0,0,10.07,0,22.5s10.07,22.5,22.5,22.5,22.5-10.07,22.5-22.5S34.93,0,22.5,0ZM19.2,34.84c-.12.3-.29.56-.5.78h0c-.22.23-.47.41-.76.54h0c-.28.12-.59.2-.91.2-.32,0-.62-.05-.91-.16-.29-.12-.56-.28-.78-.5h0c-.22-.22-.41-.48-.53-.76h0c-.12-.28-.2-.59-.2-.91,0-.32.05-.62.16-.91.11-.29.28-.56.5-.78.22-.22.47-.41.76-.53.28-.12.59-.2.91-.2.32,0,.63.05.91.16.29.11.56.28.78.5h0c.22.22.4.47.53.76.12.28.2.59.2.91,0,.32-.05.63-.16.91ZM31.69,34.58c-.11.3-.28.56-.5.78h0c-.22.23-.47.41-.76.54-.28.12-.59.2-.91.2-.32,0-.63-.05-.91-.16h0c-.29-.12-.55-.28-.78-.5h0s0,0,0,0c-.22-.22-.4-.47-.53-.76h0c-.12-.28-.2-.59-.2-.91,0-.32.05-.62.16-.91.12-.29.28-.56.5-.78h0c.22-.22.47-.41.76-.53.28-.12.59-.2.91-.2.32,0,.62.05.91.16.29.11.56.28.78.5.22.22.41.47.53.76.12.28.2.59.2.91,0,.32-.05.63-.16.91ZM35.07,15.16l-1.61,9.73c-.08.49-.28.95-.61,1.29-.32.33-.75.55-1.27.56l-7.01.15-1.14.02-5.82.12h-.16s-1.03.02-1.03.02h-.36c-.3.01-.57.15-.77.35-.19.2-.31.48-.31.78,0,.3.14.57.34.77s.48.31.78.31l9.19-.19,3.44-.07,3.24-.07c.37,0,.67.28.68.65,0,.36-.29.67-.65.67l-3.24.07-3.44.07-9.19.19c-.67.01-1.28-.25-1.73-.67-.45-.43-.73-1.03-.74-1.7-.01-.66.25-1.27.67-1.72.14-.14.29-.26.45-.37-.15-.25-.25-.53-.32-.82l-1.75-8.42-1.21-5.83c-.05-.23-.15-.44-.29-.57-.09-.09-.21-.14-.35-.14l-.88.02-2.37.05-.81.02c-.36,0-.67-.29-.67-.65,0-.37.29-.67.65-.68l.81-.02,2.37-.05.88-.02c.52-.01.96.19,1.29.51.33.32.56.78.66,1.26l.78,3.76s.03,0,.05,0l1.12-.02,8.42-.18,1.14-.02.76-.02,9.02-.19c.06,0,.11,0,.18.02.2.03.38.13.52.26.17.16.28.38.29.63,0,.05,0,.1-.01.16Z"/>
  </g>
</svg>