<?xml version="1.0" encoding="UTF-8"?>
<svg xmlns="http://www.w3.org/2000/svg" xmlns:xlink="http://www.w3.org/1999/xlink" viewBox="0 0 1146 1377.94">
  <defs>
    <style>
      .cls-1 {
        mask: url(#mask);
      }

      .cls-2 {
        filter: url(#luminosity-noclip);
      }

      .cls-3 {
        fill: url(#radial-gradient);
      }

      .cls-3, .cls-4 {
        mix-blend-mode: multiply;
      }

      .cls-3, .cls-4, .cls-5, .cls-6, .cls-7, .cls-8, .cls-9, .cls-10, .cls-11, .cls-12 {
        stroke-width: 0px;
      }

      .cls-4, .cls-5 {
        opacity: .6;
      }

      .cls-4, .cls-9 {
        fill: #dfba69;
      }

      .cls-5 {
        fill: url(#radial-gradient-2);
      }

      .cls-13 {
        isolation: isolate;
      }

      .cls-14 {
        mask: url(#mask-1);
      }

      .cls-7 {
        fill: #f4d7d1;
      }

      .cls-8 {
        fill: #121e44;
      }

      .cls-10 {
        fill: #977d5f;
      }

      .cls-11 {
        fill: #fff;
      }

      .cls-12 {
        fill: #fcfcfc;
      }
    </style>
    <filter id="luminosity-noclip" x="0" y="1316.88" width="1146" height="61.06" color-interpolation-filters="sRGB" filterUnits="userSpaceOnUse">
      <feFlood flood-color="#fff" result="bg"/>
      <feBlend in="SourceGraphic" in2="bg"/>
    </filter>
    <filter id="luminosity-noclip-2" x="0" y="-8880.97" width="1146" height="32766" color-interpolation-filters="sRGB" filterUnits="userSpaceOnUse">
      <feFlood flood-color="#fff" result="bg"/>
      <feBlend in="SourceGraphic" in2="bg"/>
    </filter>
    <mask id="mask-1" x="0" y="-8880.97" width="1146" height="32766" maskUnits="userSpaceOnUse"/>
    <radialGradient id="radial-gradient" cx="393.95" cy="383.28" fx="393.95" fy="383.28" r="468.73" gradientTransform="translate(97.04 1322.91) scale(1.28 .07)" gradientUnits="userSpaceOnUse">
      <stop offset="0" stop-color="gray"/>
      <stop offset="1" stop-color="#000"/>
    </radialGradient>
    <mask id="mask" x="0" y="1316.88" width="1146" height="61.06" maskUnits="userSpaceOnUse">
      <g class="cls-2">
        <g class="cls-14">
          <path class="cls-3" d="M1146,1347.41c0,16.86-256.54,30.53-573,30.53S0,1364.27,0,1347.41s256.54-30.53,573-30.53,573,13.67,573,30.53Z"/>
        </g>
      </g>
    </mask>
    <radialGradient id="radial-gradient-2" cx="393.95" cy="383.28" fx="393.95" fy="383.28" r="468.73" gradientTransform="translate(97.04 1322.91) scale(1.28 .07)" gradientUnits="userSpaceOnUse">
      <stop offset="0" stop-color="#000"/>
      <stop offset="1" stop-color="#fff"/>
    </radialGradient>
  </defs>
  <g class="cls-13">
    <g id="Layer_2" data-name="Layer 2">
      <g id="Layer_1-2" data-name="Layer 1">
        <g>
          <g class="cls-1">
            <path class="cls-5" d="M1146,1347.41c0,16.86-256.54,30.53-573,30.53S0,1364.27,0,1347.41s256.54-30.53,573-30.53,573,13.67,573,30.53Z"/>
          </g>
          <path class="cls-8" d="M191.91,0h780.43c16.76,0,30.37,13.61,30.37,30.37v1287.56c0,16.76-13.61,30.37-30.37,30.37H191.91c-16.76,0-30.37-13.61-30.37-30.37V30.37c0-16.76,13.61-30.37,30.37-30.37Z"/>
          <rect class="cls-11" x="297.79" y="779.14" width="569.45" height="383.41"/>
          <rect class="cls-7" x="297.79" y="563.12" width="569.45" height="197.11"/>
          <rect class="cls-10" x="297.79" y="750.65" width="569.45" height="36.89"/>
          <g>
            <path class="cls-6" d="M444.39,658.61v11.57h-48.24v-62.3h47.08v11.57h-32.75v13.53h28.93v11.21h-28.93v14.42h33.91Z"/>
            <path class="cls-6" d="M485.15,667.87c-1.37,1.01-3.04,1.77-5.03,2.27-1.99.5-4.08.76-6.27.76-5.7,0-10.1-1.45-13.22-4.36-3.11-2.91-4.67-7.18-4.67-12.82v-19.67h-7.39v-10.68h7.39v-11.66h13.88v11.66h11.93v10.68h-11.93v19.49c0,2.02.52,3.58,1.56,4.67,1.04,1.1,2.51,1.65,4.41,1.65,2.19,0,4.06-.59,5.61-1.78l3.74,9.79Z"/>
            <path class="cls-6" d="M536.46,626.93c3.65,3.56,5.47,8.84,5.47,15.84v27.41h-13.88v-25.28c0-3.8-.83-6.63-2.49-8.5-1.66-1.87-4.07-2.8-7.21-2.8-3.5,0-6.29,1.08-8.37,3.25-2.08,2.17-3.12,5.38-3.12,9.66v23.67h-13.88v-66.04h13.88v23.14c1.84-1.84,4.06-3.25,6.67-4.23,2.61-.98,5.46-1.47,8.54-1.47,5.93,0,10.72,1.78,14.37,5.34Z"/>
            <path class="cls-6" d="M555.2,613.4c-1.6-1.48-2.4-3.32-2.4-5.52s.8-4.03,2.4-5.52c1.6-1.48,3.68-2.23,6.23-2.23s4.63.71,6.23,2.14c1.6,1.42,2.4,3.2,2.4,5.34,0,2.31-.8,4.23-2.4,5.74-1.6,1.51-3.68,2.27-6.23,2.27s-4.63-.74-6.23-2.23ZM554.48,622.3h13.88v47.88h-13.88v-47.88Z"/>
            <path class="cls-6" d="M590.48,667.74c-4.01-2.11-7.13-5.03-9.39-8.77-2.25-3.74-3.38-7.98-3.38-12.73s1.13-8.99,3.38-12.73,5.38-6.66,9.39-8.77c4-2.11,8.53-3.16,13.57-3.16s9.55,1.05,13.53,3.16c3.97,2.11,7.09,5.03,9.34,8.77,2.25,3.74,3.38,7.98,3.38,12.73s-1.13,8.99-3.38,12.73c-2.26,3.74-5.37,6.66-9.34,8.77-3.98,2.11-8.49,3.16-13.53,3.16s-9.57-1.05-13.57-3.16ZM612.82,655.9c2.28-2.4,3.43-5.62,3.43-9.66s-1.14-7.25-3.43-9.66c-2.28-2.4-5.21-3.6-8.77-3.6s-6.5,1.2-8.81,3.6c-2.31,2.4-3.47,5.62-3.47,9.66s1.16,7.25,3.47,9.66c2.31,2.4,5.25,3.6,8.81,3.6s6.48-1.2,8.77-3.6Z"/>
            <path class="cls-6" d="M680.02,624.66c3.65,2.05,6.51,4.93,8.59,8.63,2.08,3.71,3.12,8.03,3.12,12.95s-1.04,9.24-3.12,12.95c-2.08,3.71-4.94,6.59-8.59,8.63-3.65,2.05-7.7,3.07-12.15,3.07-6.11,0-10.92-1.93-14.42-5.79v22.34h-13.88v-65.15h13.26v5.52c3.44-4.15,8.46-6.23,15.04-6.23,4.45,0,8.5,1.02,12.15,3.07ZM674.23,655.9c2.28-2.4,3.43-5.62,3.43-9.66s-1.14-7.25-3.43-9.66c-2.29-2.4-5.21-3.6-8.77-3.6s-6.48,1.2-8.77,3.6c-2.28,2.4-3.43,5.62-3.43,9.66s1.14,7.25,3.43,9.66c2.28,2.4,5.21,3.6,8.77,3.6s6.48-1.2,8.77-3.6Z"/>
            <path class="cls-6" d="M701.69,613.4c-1.6-1.48-2.4-3.32-2.4-5.52s.8-4.03,2.4-5.52c1.6-1.48,3.68-2.23,6.23-2.23s4.63.71,6.23,2.14c1.6,1.42,2.4,3.2,2.4,5.34,0,2.31-.8,4.23-2.4,5.74-1.6,1.51-3.68,2.27-6.23,2.27s-4.63-.74-6.23-2.23ZM700.98,622.3h13.88v47.88h-13.88v-47.88Z"/>
            <path class="cls-6" d="M764.17,626.89c3.97,3.53,5.96,8.86,5.96,15.97v27.32h-12.99v-5.96c-2.61,4.45-7.48,6.67-14.6,6.67-3.68,0-6.87-.62-9.57-1.87s-4.76-2.97-6.18-5.16c-1.42-2.19-2.14-4.69-2.14-7.48,0-4.45,1.68-7.95,5.03-10.5,3.35-2.55,8.53-3.83,15.53-3.83h11.04c0-3.03-.92-5.35-2.76-6.99-1.84-1.63-4.6-2.45-8.28-2.45-2.55,0-5.06.4-7.52,1.2-2.46.8-4.55,1.88-6.27,3.25l-4.98-9.7c2.61-1.84,5.74-3.26,9.39-4.27,3.65-1.01,7.4-1.51,11.26-1.51,7.42,0,13.11,1.77,17.09,5.3ZM752.33,659.9c1.84-1.1,3.14-2.71,3.92-4.85v-4.89h-9.52c-5.7,0-8.55,1.87-8.55,5.61,0,1.78.7,3.19,2.09,4.23,1.39,1.04,3.31,1.56,5.74,1.56s4.48-.55,6.32-1.65Z"/>
          </g>
          <g>
            <path class="cls-6" d="M374.79,923.79h-6.2v-1.61h14.27v1.61h-6.2v16.04h-1.87v-16.04Z"/>
            <path class="cls-6" d="M393.35,927.76c.92.87,1.39,2.15,1.39,3.85v8.22h-1.72v-2.07c-.4.69-1,1.23-1.78,1.61-.78.39-1.71.58-2.79.58-1.48,0-2.66-.35-3.53-1.06-.87-.71-1.31-1.64-1.31-2.8s.41-2.03,1.22-2.72c.82-.69,2.11-1.03,3.9-1.03h4.21v-.81c0-1.14-.32-2.01-.96-2.61-.64-.6-1.57-.9-2.8-.9-.84,0-1.65.14-2.42.42-.77.28-1.44.66-1.99,1.15l-.81-1.34c.67-.57,1.48-1.01,2.42-1.32.94-.31,1.93-.47,2.98-.47,1.73,0,3.06.43,3.98,1.3ZM391.33,937.85c.72-.46,1.26-1.13,1.61-2v-2.17h-4.16c-2.27,0-3.4.79-3.4,2.37,0,.77.29,1.38.88,1.83.59.45,1.41.67,2.47.67s1.87-.23,2.6-.69Z"/>
            <path class="cls-6" d="M400.07,939.49c-.98-.31-1.75-.7-2.31-1.17l.81-1.41c.55.44,1.25.79,2.09,1.07.84.28,1.71.42,2.62.42,1.21,0,2.11-.19,2.69-.57.58-.38.87-.91.87-1.6,0-.49-.16-.87-.48-1.15-.32-.28-.72-.49-1.21-.63-.49-.14-1.13-.28-1.94-.42-1.08-.2-1.94-.41-2.6-.62-.66-.21-1.21-.57-1.68-1.07-.46-.5-.69-1.2-.69-2.09,0-1.11.46-2.02,1.39-2.72.92-.71,2.21-1.06,3.86-1.06.86,0,1.71.11,2.57.34.86.23,1.56.53,2.12.9l-.78,1.44c-1.09-.76-2.4-1.14-3.91-1.14-1.14,0-2,.2-2.58.61-.58.4-.87.93-.87,1.59,0,.5.16.91.49,1.21.33.3.74.53,1.22.67.49.14,1.16.29,2.02.44,1.06.2,1.91.4,2.55.61.64.2,1.18.55,1.64,1.03.45.49.68,1.16.68,2.02,0,1.16-.48,2.08-1.45,2.76-.97.68-2.31,1.02-4.02,1.02-1.08,0-2.11-.16-3.09-.47Z"/>
            <path class="cls-6" d="M418.92,939.02c-.34.3-.75.53-1.25.69-.5.16-1.01.24-1.55.24-1.24,0-2.2-.34-2.88-1.01-.67-.67-1.01-1.62-1.01-2.85v-8.02h-2.37v-1.51h2.37v-2.9h1.79v2.9h4.04v1.51h-4.04v7.92c0,.79.2,1.39.59,1.8.39.41.96.62,1.7.62.37,0,.73-.06,1.07-.18.34-.12.64-.29.9-.5l.63,1.29Z"/>
            <path class="cls-6" d="M422.15,923.29c-.25-.25-.38-.55-.38-.91s.13-.63.38-.88c.25-.25.56-.38.93-.38s.68.12.93.37c.25.24.38.53.38.87,0,.37-.13.68-.38.93-.25.25-.56.38-.93.38s-.68-.13-.93-.38ZM422.17,926.57h1.79v13.26h-1.79v-13.26Z"/>
            <path class="cls-6" d="M439.69,927.91c.98.97,1.48,2.37,1.48,4.22v7.69h-1.79v-7.52c0-1.38-.34-2.43-1.03-3.15-.69-.72-1.67-1.08-2.95-1.08-1.43,0-2.56.42-3.39,1.27-.83.85-1.25,2.02-1.25,3.52v6.96h-1.79v-13.26h1.71v2.45c.49-.81,1.16-1.43,2.03-1.88.87-.45,1.87-.67,3.01-.67,1.66,0,2.99.48,3.97,1.45Z"/>
            <path class="cls-6" d="M458.36,926.57v11.65c0,2.25-.55,3.92-1.65,5.01-1.1,1.08-2.76,1.63-4.98,1.63-1.23,0-2.39-.18-3.49-.54-1.1-.36-2-.86-2.69-1.5l.91-1.36c.64.57,1.42,1.02,2.33,1.34.92.32,1.88.48,2.89.48,1.68,0,2.92-.39,3.71-1.17.79-.78,1.19-2,1.19-3.64v-1.69c-.55.84-1.28,1.48-2.18,1.92-.9.44-1.9.66-2.99.66-1.24,0-2.38-.27-3.39-.82-1.02-.55-1.82-1.31-2.4-2.29s-.87-2.1-.87-3.34.29-2.35.87-3.33,1.37-1.73,2.38-2.27c1.01-.54,2.14-.81,3.4-.81,1.13,0,2.14.23,3.05.68.91.45,1.64,1.11,2.19,1.97v-2.55h1.71ZM454.17,937.12c.77-.41,1.37-.99,1.8-1.73.43-.74.64-1.58.64-2.52s-.21-1.78-.64-2.51c-.43-.73-1.03-1.3-1.79-1.71-.77-.41-1.64-.62-2.61-.62s-1.82.2-2.58.61c-.77.4-1.36.98-1.79,1.71-.43.74-.64,1.58-.64,2.52s.21,1.78.64,2.52c.43.74,1.02,1.32,1.79,1.73.76.41,1.63.62,2.58.62s1.82-.21,2.6-.62Z"/>
            <path class="cls-6" d="M485.12,922.18v17.65h-1.54l-11.35-14.32v14.32h-1.87v-17.65h1.54l11.37,14.32v-14.32h1.84Z"/>
            <path class="cls-6" d="M492.46,939.09c-1.03-.58-1.83-1.38-2.42-2.41-.59-1.03-.88-2.19-.88-3.48s.29-2.45.88-3.48c.59-1.03,1.4-1.82,2.42-2.4,1.03-.57,2.18-.86,3.46-.86s2.43.29,3.45.86c1.03.57,1.83,1.37,2.41,2.4s.87,2.19.87,3.48-.29,2.45-.87,3.48c-.58,1.03-1.38,1.83-2.41,2.41-1.03.58-2.18.87-3.45.87s-2.43-.29-3.46-.87ZM498.44,937.72c.75-.43,1.33-1.04,1.75-1.83.42-.79.63-1.69.63-2.7s-.21-1.91-.63-2.7c-.42-.79-1-1.4-1.75-1.83-.75-.43-1.59-.64-2.53-.64s-1.79.21-2.53.64c-.75.43-1.34,1.04-1.77,1.83-.43.79-.64,1.69-.64,2.7s.21,1.91.64,2.7c.43.79,1.02,1.4,1.77,1.83.75.43,1.59.64,2.53.64s1.79-.21,2.53-.64Z"/>
            <path class="cls-6" d="M513.29,939.02c-.34.3-.75.53-1.25.69-.5.16-1.01.24-1.55.24-1.24,0-2.2-.34-2.88-1.01-.67-.67-1.01-1.62-1.01-2.85v-8.02h-2.37v-1.51h2.37v-2.9h1.79v2.9h4.04v1.51h-4.04v7.92c0,.79.2,1.39.59,1.8.39.41.96.62,1.7.62.37,0,.73-.06,1.07-.18.34-.12.64-.29.9-.5l.63,1.29Z"/>
            <path class="cls-6" d="M527.61,933.75h-11.1c.1,1.38.63,2.49,1.59,3.34.96.85,2.17,1.27,3.63,1.27.82,0,1.58-.15,2.27-.44.69-.29,1.29-.73,1.79-1.3l1.01,1.16c-.59.71-1.32,1.25-2.21,1.61-.88.37-1.85.55-2.91.55-1.36,0-2.57-.29-3.62-.87-1.05-.58-1.87-1.38-2.46-2.41-.59-1.03-.88-2.19-.88-3.48s.28-2.45.84-3.48c.56-1.03,1.34-1.82,2.32-2.4.98-.57,2.09-.86,3.32-.86s2.33.29,3.3.86c.98.57,1.74,1.37,2.29,2.38.56,1.02.83,2.18.83,3.49l-.03.55ZM517.99,929.23c-.87.82-1.36,1.88-1.48,3.19h9.41c-.12-1.31-.61-2.37-1.48-3.19-.87-.82-1.95-1.22-3.24-1.22s-2.35.41-3.22,1.22Z"/>
            <path class="cls-6" d="M531.76,939.49c-.98-.31-1.75-.7-2.31-1.17l.81-1.41c.55.44,1.25.79,2.09,1.07.84.28,1.71.42,2.62.42,1.21,0,2.11-.19,2.69-.57s.87-.91.87-1.6c0-.49-.16-.87-.48-1.15-.32-.28-.72-.49-1.21-.63-.49-.14-1.13-.28-1.94-.42-1.08-.2-1.94-.41-2.6-.62s-1.21-.57-1.68-1.07c-.46-.5-.69-1.2-.69-2.09,0-1.11.46-2.02,1.39-2.72.92-.71,2.21-1.06,3.86-1.06.86,0,1.71.11,2.57.34.86.23,1.56.53,2.12.9l-.78,1.44c-1.09-.76-2.4-1.14-3.91-1.14-1.14,0-2,.2-2.59.61-.58.4-.87.93-.87,1.59,0,.5.16.91.49,1.21.33.3.74.53,1.22.67.49.14,1.16.29,2.02.44,1.06.2,1.91.4,2.55.61.64.2,1.19.55,1.64,1.03.45.49.68,1.16.68,2.02,0,1.16-.48,2.08-1.45,2.76-.97.68-2.31,1.02-4.02,1.02-1.08,0-2.11-.16-3.09-.47Z"/>
            <path class="cls-6" d="M542.85,928.81c-.26-.27-.39-.6-.39-.98s.13-.71.39-.97c.26-.26.58-.39.95-.39s.69.13.96.39c.27.26.4.58.4.97s-.13.71-.4.98c-.27.27-.59.4-.96.4s-.69-.13-.95-.4ZM542.85,939.55c-.26-.27-.39-.6-.39-.98s.13-.71.39-.97c.26-.26.58-.39.95-.39s.69.13.96.39c.27.26.4.58.4.97s-.13.71-.4.98c-.27.27-.59.4-.96.4s-.69-.13-.95-.4Z"/>
          </g>
          <g>
            <path class="cls-6" d="M383.41,1080.12l-4.04-5.67c-.45.05-.92.08-1.41.08h-4.74v5.6h-1.87v-17.65h6.61c2.25,0,4.02.54,5.3,1.61,1.28,1.08,1.92,2.56,1.92,4.44,0,1.38-.35,2.54-1.05,3.49-.7.95-1.69,1.63-2.99,2.05l4.31,6.05h-2.04ZM381.92,1071.77c.92-.77,1.39-1.86,1.39-3.25s-.46-2.53-1.39-3.29c-.92-.76-2.26-1.15-4.01-1.15h-4.69v8.85h4.69c1.75,0,3.09-.39,4.01-1.16Z"/>
            <path class="cls-6" d="M391.18,1079.38c-1.03-.58-1.83-1.38-2.42-2.41-.59-1.03-.88-2.19-.88-3.48s.29-2.45.88-3.48c.59-1.03,1.4-1.82,2.42-2.4,1.03-.57,2.18-.86,3.46-.86s2.43.29,3.45.86c1.03.57,1.83,1.37,2.41,2.4s.87,2.19.87,3.48-.29,2.46-.87,3.48c-.58,1.03-1.38,1.83-2.41,2.41-1.03.58-2.18.87-3.45.87s-2.43-.29-3.46-.87ZM397.17,1078.02c.75-.43,1.33-1.04,1.75-1.83.42-.79.63-1.69.63-2.7s-.21-1.91-.63-2.7c-.42-.79-1-1.4-1.75-1.83-.75-.43-1.59-.64-2.53-.64s-1.79.21-2.53.64c-.75.43-1.34,1.04-1.77,1.83-.43.79-.64,1.69-.64,2.7s.21,1.91.64,2.7c.43.79,1.02,1.4,1.77,1.83.75.43,1.59.64,2.53.64s1.79-.21,2.53-.64Z"/>
            <path class="cls-6" d="M413.57,1068.05c.92.87,1.39,2.15,1.39,3.85v8.22h-1.72v-2.07c-.4.69-1,1.23-1.78,1.61-.78.39-1.71.58-2.79.58-1.48,0-2.66-.35-3.53-1.06-.87-.71-1.31-1.64-1.31-2.8s.41-2.03,1.22-2.72c.82-.69,2.11-1.03,3.9-1.03h4.21v-.81c0-1.14-.32-2.01-.96-2.61-.64-.6-1.57-.9-2.8-.9-.84,0-1.65.14-2.42.42-.77.28-1.44.66-1.99,1.15l-.81-1.34c.67-.57,1.48-1.01,2.42-1.32.94-.31,1.93-.47,2.98-.47,1.73,0,3.06.43,3.98,1.3ZM411.55,1078.14c.72-.46,1.26-1.13,1.61-2v-2.17h-4.16c-2.27,0-3.4.79-3.4,2.37,0,.77.29,1.38.88,1.83.59.45,1.41.67,2.47.67s1.87-.23,2.6-.69Z"/>
            <path class="cls-6" d="M420.29,1079.78c-.98-.31-1.75-.7-2.31-1.17l.81-1.41c.55.44,1.25.79,2.09,1.07.84.28,1.71.42,2.62.42,1.21,0,2.11-.19,2.69-.57.58-.38.87-.91.87-1.6,0-.49-.16-.87-.48-1.15-.32-.28-.72-.49-1.21-.63-.49-.14-1.13-.28-1.94-.42-1.08-.2-1.94-.41-2.6-.62-.66-.21-1.21-.57-1.68-1.07-.46-.5-.69-1.2-.69-2.09,0-1.11.46-2.02,1.39-2.72.92-.71,2.21-1.06,3.86-1.06.86,0,1.71.11,2.57.34.86.23,1.56.53,2.12.9l-.78,1.44c-1.09-.76-2.4-1.14-3.91-1.14-1.14,0-2,.2-2.59.61-.58.4-.87.93-.87,1.59,0,.5.16.91.49,1.21.33.3.74.53,1.22.67.49.14,1.16.29,2.02.44,1.06.2,1.91.4,2.55.61.64.2,1.18.55,1.64,1.03.45.49.68,1.16.68,2.02,0,1.16-.48,2.08-1.45,2.76-.97.68-2.31,1.02-4.02,1.02-1.08,0-2.11-.16-3.09-.47Z"/>
            <path class="cls-6" d="M439.14,1079.31c-.34.3-.75.53-1.25.69-.5.16-1.01.24-1.55.24-1.24,0-2.2-.34-2.88-1.01-.67-.67-1.01-1.62-1.01-2.85v-8.02h-2.37v-1.51h2.37v-2.9h1.79v2.9h4.04v1.51h-4.04v7.92c0,.79.2,1.39.59,1.8.39.41.96.62,1.7.62.37,0,.73-.06,1.07-.18.34-.12.64-.29.9-.5l.63,1.29Z"/>
            <path class="cls-6" d="M453.47,1074.04h-11.1c.1,1.38.63,2.49,1.59,3.34.96.85,2.17,1.27,3.63,1.27.82,0,1.58-.15,2.27-.44.69-.29,1.29-.73,1.79-1.3l1.01,1.16c-.59.71-1.32,1.25-2.21,1.61-.88.37-1.85.55-2.91.55-1.36,0-2.57-.29-3.62-.87-1.05-.58-1.87-1.38-2.46-2.41-.59-1.03-.88-2.19-.88-3.48s.28-2.45.84-3.48c.56-1.03,1.34-1.82,2.32-2.4.98-.57,2.09-.86,3.32-.86s2.33.29,3.3.86c.98.57,1.74,1.37,2.29,2.38.56,1.02.83,2.18.83,3.49l-.03.55ZM443.85,1069.52c-.87.82-1.36,1.88-1.48,3.19h9.41c-.12-1.31-.61-2.37-1.48-3.19-.87-.82-1.95-1.22-3.24-1.22s-2.35.41-3.22,1.22Z"/>
            <path class="cls-6" d="M469.25,1061.41v18.71h-1.71v-2.62c-.54.89-1.25,1.57-2.13,2.04-.88.47-1.88.71-2.99.71-1.24,0-2.37-.29-3.38-.86-1.01-.57-1.8-1.37-2.37-2.4-.57-1.03-.86-2.19-.86-3.51s.29-2.48.86-3.5c.57-1.03,1.36-1.82,2.37-2.38,1.01-.56,2.13-.84,3.38-.84,1.08,0,2.05.22,2.91.67.87.45,1.58,1.1,2.13,1.95v-7.97h1.79ZM465.08,1078.02c.75-.43,1.34-1.04,1.77-1.83.43-.79.64-1.69.64-2.7s-.21-1.91-.64-2.7c-.43-.79-1.02-1.4-1.77-1.83-.75-.43-1.58-.64-2.51-.64s-1.79.21-2.53.64c-.75.43-1.34,1.04-1.77,1.83-.43.79-.64,1.69-.64,2.7s.21,1.91.64,2.7c.43.79,1.02,1.4,1.77,1.83.75.43,1.59.64,2.53.64s1.76-.21,2.51-.64Z"/>
            <path class="cls-6" d="M473.48,1069.1c-.26-.27-.39-.6-.39-.98s.13-.71.39-.97c.26-.26.58-.39.95-.39s.69.13.96.39c.27.26.4.58.4.97s-.13.71-.4.98c-.27.27-.59.4-.96.4s-.69-.13-.95-.4ZM473.48,1079.84c-.26-.27-.39-.6-.39-.98s.13-.71.39-.97c.26-.26.58-.39.95-.39s.69.13.96.39c.27.26.4.58.4.97s-.13.71-.4.98c-.27.27-.59.4-.96.4s-.69-.13-.95-.4Z"/>
            <path class="cls-6" d="M373.12,1107.31c-1.28-1.31-1.92-3.22-1.92-5.72v-10.11h1.87v10.04c0,2.05.46,3.58,1.39,4.59.92,1.01,2.26,1.51,4.01,1.51s3.11-.5,4.03-1.51c.92-1.01,1.39-2.54,1.39-4.59v-10.04h1.82v10.11c0,2.5-.63,4.41-1.9,5.72-1.27,1.31-3.05,1.97-5.33,1.97s-4.07-.66-5.35-1.97Z"/>
            <path class="cls-6" d="M391.42,1108.78c-.98-.31-1.75-.7-2.31-1.17l.81-1.41c.55.44,1.25.79,2.09,1.07.84.28,1.71.42,2.62.42,1.21,0,2.11-.19,2.69-.57.58-.38.87-.91.87-1.6,0-.49-.16-.87-.48-1.15-.32-.28-.72-.49-1.21-.63-.49-.14-1.13-.28-1.94-.42-1.08-.2-1.94-.41-2.6-.62-.66-.21-1.21-.57-1.68-1.07-.46-.5-.69-1.2-.69-2.09,0-1.11.46-2.02,1.39-2.72.92-.71,2.21-1.06,3.86-1.06.86,0,1.71.11,2.57.34.86.23,1.56.53,2.12.9l-.78,1.44c-1.09-.76-2.4-1.14-3.91-1.14-1.14,0-2,.2-2.59.61-.58.4-.87.93-.87,1.59,0,.5.16.91.49,1.21.33.3.74.53,1.22.67.49.14,1.16.29,2.02.44,1.06.2,1.91.4,2.55.61.64.2,1.18.55,1.64,1.03.45.49.68,1.16.68,2.02,0,1.16-.48,2.08-1.45,2.76-.97.68-2.31,1.02-4.02,1.02-1.08,0-2.11-.16-3.09-.47Z"/>
            <path class="cls-6" d="M414.83,1103.04h-11.1c.1,1.38.63,2.49,1.59,3.34.96.85,2.17,1.27,3.63,1.27.82,0,1.58-.15,2.27-.44.69-.29,1.29-.73,1.79-1.3l1.01,1.16c-.59.71-1.32,1.25-2.21,1.61-.88.37-1.85.55-2.91.55-1.36,0-2.57-.29-3.62-.87-1.05-.58-1.87-1.38-2.46-2.41-.59-1.03-.88-2.19-.88-3.48s.28-2.45.84-3.48c.56-1.03,1.34-1.82,2.32-2.4.98-.57,2.09-.86,3.32-.86s2.33.29,3.3.86c.98.57,1.74,1.37,2.29,2.38.56,1.02.83,2.18.83,3.49l-.03.55ZM405.21,1098.52c-.87.82-1.36,1.88-1.48,3.19h9.41c-.12-1.31-.61-2.37-1.48-3.19-.87-.82-1.95-1.22-3.24-1.22s-2.35.41-3.22,1.22Z"/>
            <path class="cls-6" d="M435.34,1096.6c1.01.56,1.8,1.36,2.37,2.38.57,1.03.86,2.19.86,3.5s-.29,2.48-.86,3.51c-.57,1.03-1.36,1.82-2.37,2.4-1.01.57-2.14.86-3.38.86-1.11,0-2.11-.24-2.99-.71-.88-.47-1.59-1.15-2.13-2.04v2.62h-1.71v-18.71h1.79v7.97c.55-.86,1.27-1.51,2.13-1.95.87-.45,1.84-.67,2.91-.67,1.24,0,2.37.28,3.38.84ZM434.35,1107.02c.76-.43,1.35-1.04,1.78-1.83.43-.79.64-1.69.64-2.7s-.21-1.91-.64-2.7c-.43-.79-1.02-1.4-1.78-1.83-.76-.43-1.6-.64-2.52-.64s-1.79.21-2.53.64c-.75.43-1.34,1.04-1.77,1.83-.43.79-.64,1.69-.64,2.7s.21,1.91.64,2.7c.43.79,1.02,1.4,1.77,1.83.75.43,1.59.64,2.53.64s1.77-.21,2.52-.64Z"/>
            <path class="cls-6" d="M452.99,1095.86l-6.63,14.85c-.54,1.24-1.16,2.13-1.87,2.65-.71.52-1.56.78-2.55.78-.64,0-1.24-.1-1.79-.3-.56-.2-1.03-.5-1.44-.91l.83-1.34c.67.67,1.48,1.01,2.42,1.01.61,0,1.12-.17,1.55-.5.43-.34.83-.91,1.2-1.71l.58-1.29-5.93-13.24h1.87l4.99,11.27,4.99-11.27h1.77Z"/>
            <path class="cls-6" d="M454.94,1098.1c-.26-.27-.39-.6-.39-.98s.13-.71.39-.97c.26-.26.58-.39.95-.39s.69.13.96.39c.27.26.4.58.4.97s-.13.71-.4.98c-.27.27-.59.4-.96.4s-.69-.13-.95-.4ZM454.94,1108.84c-.26-.27-.39-.6-.39-.98s.13-.71.39-.97c.26-.26.58-.39.95-.39s.69.13.96.39c.27.26.4.58.4.97s-.13.71-.4.98c-.27.27-.59.4-.96.4s-.69-.13-.95-.4Z"/>
          </g>
          <g>
            <path class="cls-6" d="M389.14,842.58c-.54.66-1.17,1.16-1.9,1.5-.73.34-1.53.52-2.38.52-1.04,0-2.03-.26-2.96-.77s-1.98-1.37-3.14-2.58c-1.7-.05-3.23-.47-4.59-1.26-1.36-.79-2.43-1.86-3.2-3.2-.77-1.34-1.16-2.85-1.16-4.51s.4-3.23,1.2-4.59c.8-1.36,1.91-2.43,3.33-3.22,1.42-.78,3-1.17,4.75-1.17s3.32.39,4.73,1.16c1.4.77,2.51,1.85,3.32,3.22.81,1.37,1.21,2.9,1.21,4.6,0,1.48-.31,2.84-.92,4.07-.61,1.24-1.47,2.27-2.57,3.09-1.1.82-2.37,1.37-3.8,1.64,1.29,1.36,2.57,2.04,3.83,2.04s2.43-.54,3.35-1.61l.91,1.08ZM372.6,836c.65,1.11,1.54,1.98,2.67,2.62,1.13.64,2.4.96,3.8.96s2.66-.32,3.78-.96c1.13-.64,2.01-1.51,2.65-2.62.64-1.11.96-2.35.96-3.73s-.32-2.62-.96-3.73c-.64-1.11-1.52-1.98-2.65-2.62-1.13-.64-2.39-.96-3.78-.96s-2.66.32-3.8.96c-1.13.64-2.03,1.51-2.67,2.62-.65,1.11-.97,2.35-.97,3.73s.32,2.62.97,3.73Z"/>
            <path class="cls-6" d="M404.09,827.83v13.26h-1.71v-2.42c-.47.81-1.12,1.43-1.94,1.88s-1.77.67-2.82.67c-1.73,0-3.1-.48-4.1-1.45-1-.97-1.5-2.38-1.5-4.25v-7.69h1.79v7.51c0,1.4.34,2.46,1.03,3.18.69.72,1.67,1.08,2.95,1.08,1.4,0,2.5-.42,3.3-1.27.81-.85,1.21-2.03,1.21-3.54v-6.96h1.79Z"/>
            <path class="cls-6" d="M417.73,829.02c.92.87,1.39,2.15,1.39,3.85v8.22h-1.72v-2.07c-.4.69-1,1.23-1.78,1.61-.78.39-1.71.58-2.79.58-1.48,0-2.66-.35-3.53-1.06-.87-.71-1.31-1.64-1.31-2.8s.41-2.03,1.22-2.72c.81-.69,2.11-1.03,3.9-1.03h4.21v-.81c0-1.14-.32-2.01-.96-2.61-.64-.6-1.57-.9-2.8-.9-.84,0-1.65.14-2.42.42-.77.28-1.44.66-1.99,1.15l-.81-1.34c.67-.57,1.48-1.01,2.42-1.32.94-.31,1.93-.47,2.98-.47,1.73,0,3.06.43,3.98,1.3ZM415.72,839.11c.72-.46,1.26-1.13,1.61-2v-2.17h-4.16c-2.27,0-3.4.79-3.4,2.37,0,.77.29,1.38.88,1.83.59.45,1.41.67,2.47.67s1.87-.23,2.6-.69Z"/>
            <path class="cls-6" d="M423.99,822.38h1.79v18.71h-1.79v-18.71Z"/>
            <path class="cls-6" d="M430.75,824.55c-.25-.25-.38-.55-.38-.91s.13-.63.38-.88c.25-.25.56-.38.93-.38s.68.12.93.37c.25.24.38.53.38.87,0,.37-.13.68-.38.93-.25.25-.56.38-.93.38s-.68-.13-.93-.38ZM430.77,827.83h1.79v13.26h-1.79v-13.26Z"/>
            <path class="cls-6" d="M444.54,840.28c-.34.3-.75.53-1.25.69-.5.16-1.01.24-1.55.24-1.24,0-2.2-.34-2.88-1.01-.67-.67-1.01-1.62-1.01-2.85v-8.02h-2.37v-1.51h2.37v-2.9h1.79v2.9h4.04v1.51h-4.04v7.92c0,.79.2,1.39.59,1.8.39.41.96.62,1.7.62.37,0,.73-.06,1.07-.18.34-.12.64-.29.9-.5l.63,1.29Z"/>
            <path class="cls-6" d="M458.69,827.83l-6.63,14.85c-.54,1.24-1.16,2.13-1.87,2.65-.71.52-1.56.78-2.55.78-.64,0-1.24-.1-1.79-.3-.56-.2-1.03-.5-1.44-.91l.83-1.34c.67.67,1.48,1.01,2.42,1.01.61,0,1.12-.17,1.55-.5s.83-.91,1.2-1.71l.58-1.29-5.93-13.24h1.87l4.99,11.27,4.99-11.27h1.77Z"/>
            <path class="cls-6" d="M468.28,840.75c-.98-.31-1.75-.7-2.31-1.17l.81-1.41c.55.44,1.25.79,2.09,1.07s1.71.42,2.62.42c1.21,0,2.11-.19,2.69-.57.58-.38.87-.91.87-1.6,0-.49-.16-.87-.48-1.15-.32-.28-.72-.49-1.21-.63-.49-.14-1.13-.28-1.94-.42-1.08-.2-1.94-.41-2.6-.62-.66-.21-1.21-.57-1.68-1.07-.46-.5-.69-1.2-.69-2.09,0-1.11.46-2.02,1.39-2.72.92-.71,2.21-1.06,3.86-1.06.86,0,1.71.11,2.57.34.86.23,1.56.53,2.12.9l-.78,1.44c-1.09-.76-2.4-1.14-3.91-1.14-1.14,0-2,.2-2.58.61-.58.4-.87.93-.87,1.59,0,.5.16.91.49,1.21.33.3.74.53,1.22.67.49.14,1.16.29,2.02.44,1.06.2,1.91.4,2.55.61.64.2,1.18.55,1.64,1.03.45.49.68,1.16.68,2.02,0,1.16-.48,2.08-1.45,2.76s-2.31,1.02-4.02,1.02c-1.08,0-2.11-.16-3.09-.47Z"/>
            <path class="cls-6" d="M482.13,840.36c-1.03-.57-1.85-1.37-2.43-2.41-.59-1.03-.88-2.2-.88-3.49s.29-2.45.88-3.48c.59-1.03,1.4-1.82,2.43-2.4,1.03-.57,2.21-.86,3.52-.86,1.14,0,2.16.22,3.06.67.9.45,1.61,1.1,2.13,1.95l-1.34.91c-.44-.66-.99-1.15-1.66-1.48-.67-.33-1.4-.49-2.19-.49-.96,0-1.82.21-2.58.64-.77.43-1.36,1.04-1.79,1.83-.43.79-.64,1.69-.64,2.7s.21,1.93.64,2.71c.43.78,1.02,1.39,1.79,1.82.76.43,1.63.64,2.58.64.79,0,1.52-.16,2.19-.48.67-.32,1.23-.81,1.66-1.46l1.34.91c-.52.86-1.24,1.51-2.14,1.96-.91.45-1.93.67-3.05.67-1.31,0-2.48-.29-3.52-.86Z"/>
            <path class="cls-6" d="M496.09,840.35c-1.03-.58-1.83-1.38-2.42-2.41-.59-1.03-.88-2.19-.88-3.48s.29-2.45.88-3.48c.59-1.03,1.4-1.82,2.42-2.4,1.03-.57,2.18-.86,3.46-.86s2.43.29,3.45.86c1.03.57,1.83,1.37,2.41,2.4.58,1.03.87,2.19.87,3.48s-.29,2.46-.87,3.48c-.58,1.03-1.38,1.83-2.41,2.41-1.03.58-2.18.87-3.45.87s-2.43-.29-3.46-.87ZM502.08,838.99c.75-.43,1.33-1.04,1.75-1.83.42-.79.63-1.69.63-2.7s-.21-1.91-.63-2.7c-.42-.79-1-1.4-1.75-1.83-.75-.43-1.59-.64-2.53-.64s-1.79.21-2.53.64c-.75.43-1.34,1.04-1.77,1.83-.43.79-.64,1.69-.64,2.7s.21,1.91.64,2.7c.43.79,1.02,1.4,1.77,1.83.75.43,1.59.64,2.53.64s1.79-.21,2.53-.64Z"/>
            <path class="cls-6" d="M513.53,828.41c.83-.45,1.86-.68,3.09-.68v1.74l-.43-.03c-1.4,0-2.49.43-3.28,1.29-.79.86-1.19,2.06-1.19,3.61v6.76h-1.79v-13.26h1.71v2.6c.42-.89,1.05-1.56,1.88-2.02Z"/>
            <path class="cls-6" d="M531.27,835.01h-11.1c.1,1.38.63,2.49,1.59,3.34.96.85,2.17,1.27,3.63,1.27.82,0,1.58-.15,2.27-.44.69-.29,1.29-.73,1.79-1.3l1.01,1.16c-.59.71-1.32,1.25-2.21,1.61-.88.37-1.85.55-2.91.55-1.36,0-2.57-.29-3.62-.87-1.05-.58-1.87-1.38-2.46-2.41-.59-1.03-.88-2.19-.88-3.48s.28-2.45.84-3.48c.56-1.03,1.34-1.82,2.32-2.4.98-.57,2.09-.86,3.32-.86s2.33.29,3.3.86c.98.57,1.74,1.37,2.3,2.38.56,1.02.83,2.18.83,3.49l-.03.55ZM521.65,830.49c-.87.82-1.36,1.88-1.48,3.19h9.41c-.12-1.31-.61-2.37-1.48-3.19-.87-.82-1.95-1.22-3.24-1.22s-2.35.41-3.22,1.22Z"/>
            <path class="cls-6" d="M534.18,830.07c-.26-.27-.39-.6-.39-.98s.13-.71.39-.97c.26-.26.58-.39.95-.39s.69.13.96.39c.27.26.4.58.4.97s-.13.71-.4.98c-.27.27-.59.4-.96.4s-.69-.13-.95-.4ZM534.18,840.81c-.26-.27-.39-.6-.39-.98s.13-.71.39-.97c.26-.26.58-.39.95-.39s.69.13.96.39c.27.26.4.58.4.97s-.13.71-.4.98c-.27.27-.59.4-.96.4s-.69-.13-.95-.4Z"/>
          </g>
          <g>
            <path class="cls-6" d="M627.1,834.28c.88,1.09,1.32,2.41,1.32,3.94s-.41,2.83-1.23,3.96c-.82,1.13-1.99,2-3.52,2.6-1.53.61-3.32.91-5.38.91-3.12,0-5.58-.67-7.37-2.01-1.79-1.34-2.68-3.16-2.68-5.47,0-1.56.43-2.88,1.28-3.96.86-1.08,2.1-1.89,3.74-2.44-1.34-.52-2.36-1.27-3.05-2.25-.7-.98-1.04-2.14-1.04-3.48,0-2.11.82-3.78,2.47-5.02,1.65-1.24,3.86-1.86,6.64-1.86,1.84,0,3.44.28,4.82.84,1.38.56,2.45,1.36,3.22,2.4.77,1.04,1.15,2.26,1.15,3.65s-.36,2.5-1.08,3.48c-.72.98-1.75,1.73-3.09,2.25,1.64.55,2.9,1.37,3.78,2.46ZM623.71,842.02c1.3-.94,1.95-2.22,1.95-3.83s-.65-2.88-1.95-3.81c-1.3-.93-3.11-1.39-5.41-1.39s-4.07.46-5.38,1.39c-1.3.93-1.95,2.2-1.95,3.81s.64,2.92,1.93,3.85c1.29.93,3.09,1.39,5.4,1.39s4.11-.47,5.41-1.41ZM613.57,829.59c1.14.84,2.72,1.27,4.73,1.27s3.59-.42,4.74-1.27c1.15-.84,1.73-1.97,1.73-3.39s-.59-2.62-1.77-3.46c-1.18-.84-2.75-1.26-4.71-1.26s-3.55.42-4.71,1.26c-1.15.84-1.73,1.99-1.73,3.42s.57,2.58,1.71,3.42Z"/>
            <path class="cls-6" d="M647.23,832.14c1.72,1.35,2.59,3.24,2.59,5.67,0,1.51-.35,2.87-1.06,4.06s-1.77,2.13-3.18,2.81c-1.41.68-3.15,1.02-5.21,1.02-1.86,0-3.63-.3-5.3-.91-1.67-.61-3.02-1.42-4.04-2.44l1.3-2.12c.87.89,2.01,1.62,3.42,2.18,1.41.56,2.94.84,4.58.84,2.16,0,3.83-.48,5-1.45,1.18-.97,1.77-2.26,1.77-3.87,0-1.79-.66-3.14-1.99-4.06-1.33-.92-3.57-1.38-6.72-1.38h-5.54l1.34-13.06h14.25v2.38h-11.91l-.89,8.3h3.35c3.77,0,6.52.68,8.24,2.03Z"/>
          </g>
          <g>
            <path class="cls-6" d="M639.07,1105.69v3.94h-30.21v-3.14l17.9-17.53c2.25-2.21,3.78-4.13,4.58-5.75s1.2-3.25,1.2-4.89c0-2.54-.87-4.52-2.62-5.94-1.74-1.42-4.24-2.12-7.47-2.12-5.04,0-8.96,1.6-11.75,4.8l-3.14-2.71c1.68-1.97,3.82-3.49,6.43-4.55,2.6-1.07,5.55-1.6,8.83-1.6,4.39,0,7.86,1.04,10.43,3.11,2.56,2.07,3.85,4.91,3.85,8.52,0,2.21-.49,4.35-1.48,6.4-.98,2.05-2.85,4.41-5.6,7.08l-14.64,14.4h23.69Z"/>
            <path class="cls-6" d="M669.56,1087.58c2.85,2.24,4.28,5.36,4.28,9.38,0,2.5-.58,4.74-1.75,6.71-1.17,1.97-2.92,3.52-5.26,4.65-2.34,1.13-5.21,1.69-8.61,1.69-3.08,0-6-.5-8.77-1.51-2.77-1-4.99-2.35-6.67-4.03l2.15-3.51c1.44,1.48,3.32,2.68,5.66,3.6,2.34.92,4.86,1.38,7.57,1.38,3.57,0,6.33-.8,8.27-2.4,1.95-1.6,2.92-3.73,2.92-6.4,0-2.95-1.1-5.19-3.29-6.71-2.19-1.52-5.9-2.28-11.1-2.28h-9.17l2.21-21.59h23.56v3.94h-19.69l-1.48,13.72h5.54c6.23,0,10.78,1.12,13.63,3.35Z"/>
            <path class="cls-6" d="M687.71,1107.36c-2.61-1.76-4.64-4.3-6.09-7.6-1.46-3.3-2.18-7.19-2.18-11.66s.73-8.36,2.18-11.66c1.46-3.3,3.49-5.83,6.09-7.6,2.6-1.76,5.57-2.65,8.89-2.65s6.28.88,8.89,2.65c2.6,1.76,4.64,4.3,6.12,7.6,1.48,3.3,2.21,7.19,2.21,11.66s-.74,8.36-2.21,11.66c-1.48,3.3-3.52,5.83-6.12,7.6-2.61,1.76-5.57,2.65-8.89,2.65s-6.29-.88-8.89-2.65ZM703.21,1103.85c1.91-1.39,3.39-3.42,4.46-6.09,1.07-2.67,1.6-5.88,1.6-9.66s-.53-6.99-1.6-9.66c-1.07-2.66-2.55-4.7-4.46-6.09-1.91-1.39-4.11-2.09-6.61-2.09s-4.71.7-6.61,2.09c-1.91,1.4-3.39,3.43-4.46,6.09-1.07,2.67-1.6,5.89-1.6,9.66s.53,6.99,1.6,9.66c1.07,2.67,2.55,4.7,4.46,6.09,1.91,1.39,4.11,2.09,6.61,2.09s4.71-.7,6.61-2.09Z"/>
            <path class="cls-6" d="M753.01,1077.27v28.42c0,5.5-1.34,9.57-4.03,12.21-2.69,2.65-6.74,3.97-12.15,3.97-2.99,0-5.84-.44-8.52-1.32-2.69-.88-4.87-2.1-6.55-3.66l2.21-3.32c1.56,1.39,3.46,2.48,5.69,3.26,2.24.78,4.58,1.17,7.04,1.17,4.1,0,7.12-.95,9.04-2.86,1.93-1.91,2.89-4.87,2.89-8.89v-4.12c-1.35,2.05-3.13,3.61-5.32,4.68-2.19,1.07-4.62,1.6-7.29,1.6-3.04,0-5.79-.67-8.27-2-2.48-1.33-4.43-3.2-5.85-5.6-1.41-2.4-2.12-5.12-2.12-8.15s.71-5.74,2.12-8.12c1.42-2.38,3.35-4.22,5.81-5.54,2.46-1.31,5.23-1.97,8.31-1.97,2.75,0,5.23.55,7.44,1.66,2.21,1.11,4,2.71,5.35,4.8v-6.21h4.18ZM742.8,1103.02c1.89-1,3.35-2.41,4.4-4.21,1.04-1.8,1.57-3.85,1.57-6.15s-.52-4.34-1.57-6.12c-1.05-1.78-2.5-3.18-4.37-4.18-1.87-1-3.99-1.51-6.37-1.51s-4.44.49-6.31,1.48c-1.87.98-3.32,2.38-4.37,4.18-1.05,1.81-1.57,3.86-1.57,6.15s.52,4.35,1.57,6.15c1.04,1.81,2.5,3.21,4.37,4.21,1.87,1,3.97,1.51,6.31,1.51s4.45-.5,6.34-1.51Z"/>
          </g>
          <rect class="cls-6" x="367.48" y="884.03" width="430.07" height=".94"/>
          <g>
            <path class="cls-6" d="M608.34,923.5h.78v10.04h6.19v.71h-6.97v-10.75Z"/>
            <path class="cls-6" d="M618.02,933.78c-.61-.35-1.09-.83-1.44-1.45-.35-.62-.52-1.32-.52-2.1s.17-1.48.52-2.09c.35-.62.83-1.1,1.44-1.45.61-.35,1.29-.52,2.05-.52s1.44.17,2.05.52c.61.35,1.09.83,1.43,1.45.35.62.52,1.32.52,2.09s-.17,1.48-.52,2.1c-.35.62-.83,1.1-1.43,1.45-.61.35-1.29.52-2.05.52s-1.44-.17-2.05-.52ZM621.72,933.18c.49-.29.87-.69,1.15-1.2.28-.51.42-1.09.42-1.75s-.14-1.24-.42-1.75c-.28-.51-.67-.91-1.15-1.2-.49-.29-1.04-.43-1.65-.43s-1.17.14-1.65.43c-.49.29-.87.69-1.15,1.2-.28.51-.42,1.1-.42,1.75s.14,1.24.42,1.75c.28.51.67.91,1.15,1.2.49.29,1.04.43,1.65.43s1.16-.14,1.65-.43Z"/>
            <path class="cls-6" d="M628.34,926.64c.52-.31,1.16-.47,1.9-.47v.75l-.18-.02c-.89,0-1.59.28-2.09.84-.5.56-.75,1.33-.75,2.33v4.18h-.77v-8.01h.74v1.75c.25-.58.63-1.03,1.15-1.34Z"/>
            <path class="cls-6" d="M639.06,930.42h-6.89c.02.62.18,1.18.48,1.66.3.49.7.86,1.2,1.13.51.27,1.08.4,1.71.4.52,0,1-.09,1.45-.28.44-.19.82-.47,1.11-.84l.45.51c-.35.42-.79.74-1.31.97-.53.23-1.1.34-1.71.34-.8,0-1.51-.17-2.13-.52-.62-.35-1.11-.83-1.46-1.44-.35-.61-.53-1.32-.53-2.1s.17-1.48.5-2.09c.33-.62.79-1.1,1.37-1.45.58-.35,1.24-.52,1.96-.52s1.38.17,1.96.51c.58.34,1.03.82,1.37,1.44.33.61.5,1.31.5,2.09v.21ZM633.73,927.22c-.45.25-.81.6-1.08,1.06-.27.46-.43.97-.47,1.54h6.14c-.03-.57-.18-1.08-.46-1.54s-.64-.8-1.09-1.06c-.45-.25-.96-.38-1.52-.38s-1.07.13-1.52.38Z"/>
            <path class="cls-6" d="M653.77,927.04c.57.58.85,1.42.85,2.52v4.68h-.77v-4.62c0-.9-.22-1.59-.66-2.06-.44-.47-1.05-.71-1.84-.71-.9,0-1.61.28-2.14.84-.53.56-.79,1.32-.79,2.27v4.27h-.77v-4.62c0-.9-.22-1.59-.66-2.06-.44-.47-1.05-.71-1.84-.71-.9,0-1.61.28-2.14.84-.53.56-.79,1.32-.79,2.27v4.27h-.77v-8.01h.74v1.72c.27-.56.66-1,1.19-1.31.53-.31,1.15-.47,1.88-.47s1.34.16,1.85.49c.51.33.87.81,1.08,1.44.27-.59.68-1.06,1.25-1.41.57-.35,1.23-.52,1.99-.52.99,0,1.77.29,2.34.87Z"/>
            <path class="cls-6" d="M661.67,924.1c-.12-.12-.19-.26-.19-.44s.06-.32.19-.45c.12-.12.27-.18.44-.18s.32.06.45.18c.12.12.18.26.18.44s-.06.32-.18.45c-.12.12-.27.18-.45.18s-.32-.06-.44-.18ZM661.73,926.23h.77v8.01h-.77v-8.01Z"/>
            <path class="cls-6" d="M671.78,926.69c.6.35,1.08.83,1.42,1.44.34.61.51,1.32.51,2.1s-.17,1.49-.51,2.11c-.34.62-.82,1.1-1.42,1.44-.6.34-1.28.51-2.03.51-.71,0-1.35-.17-1.92-.5-.57-.33-1.02-.8-1.34-1.39v4.8h-.77v-10.99h.74v1.89c.32-.61.76-1.09,1.34-1.44.58-.34,1.23-.51,1.94-.51s1.42.17,2.03.52ZM671.37,933.18c.49-.29.88-.69,1.16-1.2.28-.51.42-1.09.42-1.75s-.14-1.24-.42-1.75c-.28-.51-.67-.91-1.16-1.2-.49-.29-1.04-.43-1.66-.43s-1.16.14-1.65.43c-.49.29-.87.69-1.15,1.2-.28.51-.42,1.1-.42,1.75s.14,1.24.42,1.75c.28.51.66.91,1.15,1.2.49.29,1.04.43,1.65.43s1.17-.14,1.66-.43Z"/>
            <path class="cls-6" d="M676.28,934.01c-.58-.19-1.04-.44-1.37-.74l.35-.61c.33.28.75.51,1.27.69.52.18,1.06.28,1.62.28.81,0,1.41-.13,1.79-.4.38-.27.58-.63.58-1.11,0-.34-.11-.6-.31-.8-.21-.19-.47-.34-.78-.43-.31-.09-.73-.19-1.27-.29-.63-.11-1.15-.24-1.54-.37-.39-.13-.72-.35-1-.64-.28-.3-.42-.71-.42-1.23,0-.63.26-1.16.79-1.57.53-.41,1.28-.62,2.25-.62.51,0,1.02.07,1.52.21.5.14.91.33,1.23.57l-.35.61c-.33-.24-.7-.41-1.12-.54-.42-.12-.85-.18-1.29-.18-.75,0-1.31.14-1.69.42-.38.28-.57.64-.57,1.09,0,.36.11.64.32.84.21.2.48.35.79.44.31.1.75.2,1.31.32.62.11,1.13.23,1.51.36.38.13.71.33.97.62.27.29.4.68.4,1.18,0,.66-.28,1.2-.83,1.6-.55.4-1.33.6-2.33.6-.64,0-1.26-.1-1.84-.29Z"/>
            <path class="cls-6" d="M690.45,926.23v8.01h-.74v-1.72c-.27.56-.66,1-1.18,1.31-.52.31-1.14.47-1.84.47-1.04,0-1.86-.29-2.46-.88-.59-.58-.89-1.42-.89-2.52v-4.68h.77v4.62c0,.9.23,1.59.69,2.06.46.47,1.11.71,1.95.71.9,0,1.61-.28,2.14-.84.53-.56.79-1.32.79-2.27v-4.27h.77Z"/>
            <path class="cls-6" d="M706.02,927.04c.57.58.85,1.42.85,2.52v4.68h-.77v-4.62c0-.9-.22-1.59-.66-2.06-.44-.47-1.05-.71-1.84-.71-.9,0-1.61.28-2.14.84-.53.56-.79,1.32-.79,2.27v4.27h-.77v-4.62c0-.9-.22-1.59-.66-2.06-.44-.47-1.05-.71-1.84-.71-.9,0-1.61.28-2.14.84-.53.56-.79,1.32-.79,2.27v4.27h-.77v-8.01h.74v1.72c.27-.56.66-1,1.19-1.31.53-.31,1.15-.47,1.88-.47s1.34.16,1.85.49c.51.33.87.81,1.08,1.44.27-.59.68-1.06,1.25-1.41.57-.35,1.23-.52,1.99-.52.99,0,1.77.29,2.34.87Z"/>
            <path class="cls-6" d="M721.1,922.85v11.39h-.75v-1.89c-.32.62-.76,1.1-1.34,1.44-.57.34-1.22.51-1.95.51s-1.42-.17-2.03-.52c-.6-.35-1.08-.83-1.42-1.44-.34-.61-.52-1.32-.52-2.1s.17-1.49.52-2.11c.34-.62.82-1.1,1.42-1.44.6-.34,1.28-.51,2.03-.51s1.36.17,1.93.51c.57.34,1.02.81,1.34,1.41v-5.24h.77ZM718.76,933.18c.49-.29.87-.69,1.15-1.2.28-.51.42-1.09.42-1.75s-.14-1.24-.42-1.75c-.28-.51-.67-.91-1.15-1.2-.49-.29-1.04-.43-1.65-.43s-1.17.14-1.65.43c-.49.29-.87.69-1.15,1.2-.28.51-.42,1.1-.42,1.75s.14,1.24.42,1.75c.28.51.67.91,1.15,1.2.49.29,1.04.43,1.65.43s1.16-.14,1.65-.43Z"/>
            <path class="cls-6" d="M725.42,933.78c-.61-.35-1.09-.83-1.44-1.45-.35-.62-.52-1.32-.52-2.1s.17-1.48.52-2.09c.35-.62.83-1.1,1.44-1.45.61-.35,1.29-.52,2.05-.52s1.44.17,2.05.52c.61.35,1.09.83,1.44,1.45.35.62.52,1.32.52,2.09s-.17,1.48-.52,2.1c-.35.62-.83,1.1-1.44,1.45-.61.35-1.29.52-2.05.52s-1.44-.17-2.05-.52ZM729.12,933.18c.49-.29.87-.69,1.15-1.2.28-.51.42-1.09.42-1.75s-.14-1.24-.42-1.75c-.28-.51-.67-.91-1.15-1.2-.49-.29-1.04-.43-1.65-.43s-1.16.14-1.65.43c-.49.29-.87.69-1.15,1.2-.28.51-.42,1.1-.42,1.75s.14,1.24.42,1.75c.28.51.67.91,1.15,1.2.49.29,1.04.43,1.65.43s1.16-.14,1.65-.43Z"/>
            <path class="cls-6" d="M733.86,922.85h.77v11.39h-.77v-11.39Z"/>
            <path class="cls-6" d="M738.95,933.78c-.61-.35-1.09-.83-1.44-1.45-.35-.62-.52-1.32-.52-2.1s.17-1.48.52-2.09c.35-.62.83-1.1,1.44-1.45.61-.35,1.29-.52,2.05-.52s1.44.17,2.05.52c.61.35,1.09.83,1.44,1.45.35.62.52,1.32.52,2.09s-.17,1.48-.52,2.1c-.35.62-.83,1.1-1.44,1.45-.61.35-1.29.52-2.05.52s-1.44-.17-2.05-.52ZM742.65,933.18c.49-.29.87-.69,1.15-1.2.28-.51.42-1.09.42-1.75s-.14-1.24-.42-1.75c-.28-.51-.66-.91-1.15-1.2-.49-.29-1.04-.43-1.65-.43s-1.16.14-1.65.43c-.49.29-.87.69-1.15,1.2-.28.51-.42,1.1-.42,1.75s.14,1.24.42,1.75c.28.51.67.91,1.15,1.2.49.29,1.04.43,1.65.43s1.16-.14,1.65-.43Z"/>
            <path class="cls-6" d="M749.27,926.64c.52-.31,1.16-.47,1.9-.47v.75l-.19-.02c-.89,0-1.59.28-2.09.84s-.75,1.33-.75,2.33v4.18h-.77v-8.01h.74v1.75c.25-.58.63-1.03,1.15-1.34Z"/>
            <path class="cls-6" d="M608.28,949.36c-.58-.19-1.04-.44-1.37-.74l.35-.61c.33.28.75.51,1.27.69.52.18,1.06.28,1.62.28.81,0,1.41-.13,1.79-.4.38-.27.58-.63.58-1.11,0-.34-.11-.6-.32-.8-.21-.19-.47-.34-.78-.43-.31-.09-.73-.19-1.27-.29-.63-.11-1.15-.24-1.54-.37-.39-.13-.72-.35-1-.64-.28-.3-.42-.71-.42-1.23,0-.63.26-1.16.79-1.57.53-.41,1.28-.62,2.25-.62.51,0,1.02.07,1.52.21.5.14.91.33,1.23.57l-.35.61c-.33-.24-.7-.41-1.12-.54-.42-.12-.85-.18-1.29-.18-.75,0-1.31.14-1.69.42-.38.28-.57.64-.57,1.09,0,.36.11.64.32.84.21.2.48.35.79.44.31.1.75.2,1.31.32.62.11,1.13.23,1.51.36.38.13.71.33.97.62.27.29.4.68.4,1.18,0,.66-.28,1.2-.83,1.6-.55.4-1.33.6-2.33.6-.64,0-1.26-.1-1.84-.29Z"/>
            <path class="cls-6" d="M615.37,939.46c-.12-.12-.18-.26-.18-.44s.06-.32.18-.45c.12-.12.27-.18.44-.18s.32.06.45.18c.12.12.18.26.18.44s-.06.32-.18.45c-.12.12-.27.18-.45.18s-.32-.06-.44-.18ZM615.43,941.58h.77v8.01h-.77v-8.01Z"/>
            <path class="cls-6" d="M623.41,949.09c-.2.18-.44.33-.73.42-.29.1-.6.15-.91.15-.7,0-1.23-.19-1.61-.58-.38-.38-.57-.92-.57-1.6v-5.23h-1.47v-.66h1.47v-1.75h.77v1.75h2.55v.66h-2.55v5.16c0,.52.12.92.38,1.19.25.27.62.41,1.11.41s.92-.15,1.24-.45l.32.54Z"/>
            <path class="cls-6" d="M634.48,942.28c.53.51.8,1.25.8,2.23v5.08h-.74v-1.43c-.26.47-.63.84-1.12,1.1-.49.26-1.08.39-1.77.39-.89,0-1.59-.21-2.11-.63-.52-.42-.77-.97-.77-1.66s.24-1.21.71-1.62c.48-.41,1.24-.62,2.28-.62h2.75v-.64c0-.75-.2-1.32-.61-1.7-.4-.39-1-.58-1.77-.58-.53,0-1.04.09-1.53.28-.49.18-.9.43-1.24.74l-.38-.55c.4-.36.88-.64,1.44-.84.56-.2,1.15-.3,1.77-.3.99,0,1.75.25,2.29.76ZM633.46,948.57c.46-.31.82-.75,1.05-1.34v-1.5h-2.73c-.79,0-1.36.14-1.71.43-.35.29-.53.68-.53,1.18s.19.93.58,1.24c.39.3.94.45,1.64.45.67,0,1.23-.15,1.7-.46Z"/>
            <path class="cls-6" d="M650.76,942.39c.57.58.85,1.42.85,2.52v4.68h-.77v-4.62c0-.9-.22-1.59-.66-2.06-.44-.47-1.05-.71-1.84-.71-.9,0-1.61.28-2.14.84-.53.56-.79,1.32-.79,2.27v4.27h-.77v-4.62c0-.9-.22-1.59-.66-2.06-.44-.47-1.05-.71-1.84-.71-.9,0-1.61.28-2.14.84-.53.56-.79,1.32-.79,2.27v4.27h-.77v-8.01h.74v1.72c.27-.56.66-1,1.19-1.31.53-.31,1.15-.47,1.88-.47s1.34.16,1.85.49c.51.33.87.81,1.08,1.44.27-.59.68-1.06,1.25-1.41.57-.35,1.23-.52,1.99-.52.99,0,1.77.29,2.34.87Z"/>
            <path class="cls-6" d="M661.56,945.77h-6.89c.02.62.18,1.18.48,1.66.3.49.7.86,1.21,1.13.51.27,1.08.4,1.71.4.52,0,1-.09,1.45-.28.45-.19.82-.47,1.11-.84l.45.51c-.35.42-.79.74-1.31.97-.53.23-1.1.34-1.71.34-.8,0-1.51-.17-2.13-.52-.62-.35-1.11-.83-1.47-1.44-.35-.61-.53-1.32-.53-2.1s.17-1.48.5-2.09c.33-.62.79-1.1,1.37-1.45.58-.35,1.24-.52,1.96-.52s1.38.17,1.96.51c.58.34,1.03.82,1.37,1.44.33.61.5,1.31.5,2.09v.21ZM656.23,942.57c-.45.25-.81.6-1.08,1.06-.27.46-.43.97-.47,1.54h6.14c-.03-.57-.18-1.08-.46-1.54-.28-.45-.64-.8-1.09-1.06-.45-.25-.96-.38-1.52-.38s-1.07.13-1.52.38Z"/>
            <path class="cls-6" d="M667.93,949.09c-.19.18-.44.33-.73.42-.29.1-.6.15-.91.15-.7,0-1.23-.19-1.61-.58-.38-.38-.57-.92-.57-1.6v-5.23h-1.47v-.66h1.47v-1.75h.77v1.75h2.55v.66h-2.55v5.16c0,.52.12.92.38,1.19.25.27.62.41,1.11.41s.92-.15,1.24-.45l.32.54Z"/>
            <path class="cls-6" d="M670.58,948.54c.12.13.18.28.18.45,0,.1-.01.21-.04.32-.03.11-.06.24-.1.38l-.6,2.09h-.55l.51-2.17c-.15-.04-.28-.11-.37-.22-.09-.11-.14-.24-.14-.41,0-.18.06-.34.18-.46.12-.12.28-.18.46-.18s.34.06.46.19Z"/>
            <path class="cls-6" d="M678.32,949.13c-.62-.35-1.1-.83-1.44-1.45-.35-.62-.52-1.32-.52-2.1s.17-1.49.52-2.11c.35-.62.83-1.1,1.44-1.44.61-.34,1.31-.51,2.09-.51.65,0,1.23.12,1.76.38.53.25.95.62,1.28,1.1l-.57.41c-.29-.4-.64-.7-1.07-.9-.43-.2-.89-.3-1.41-.3-.62,0-1.18.14-1.68.42-.5.28-.88.68-1.17,1.19-.28.51-.42,1.1-.42,1.76s.14,1.25.42,1.77c.28.51.67.91,1.17,1.19.5.28,1.06.42,1.68.42.51,0,.98-.1,1.41-.3.42-.2.78-.5,1.07-.9l.57.41c-.33.48-.76.85-1.28,1.1-.53.25-1.11.38-1.76.38-.78,0-1.47-.17-2.09-.52Z"/>
            <path class="cls-6" d="M686.7,949.13c-.61-.35-1.09-.83-1.44-1.45-.35-.62-.52-1.32-.52-2.1s.17-1.48.52-2.09c.35-.62.83-1.1,1.44-1.45.61-.35,1.29-.52,2.05-.52s1.44.17,2.05.52c.61.35,1.09.83,1.43,1.45.35.62.52,1.32.52,2.09s-.17,1.48-.52,2.1c-.35.62-.83,1.1-1.43,1.45-.61.35-1.29.52-2.05.52s-1.44-.17-2.05-.52ZM690.39,948.53c.49-.29.87-.69,1.15-1.2.28-.51.42-1.09.42-1.75s-.14-1.24-.42-1.75c-.28-.51-.67-.91-1.15-1.2-.49-.29-1.04-.43-1.65-.43s-1.16.14-1.65.43c-.49.29-.87.69-1.15,1.2-.28.51-.42,1.1-.42,1.75s.14,1.24.42,1.75c.28.51.67.91,1.15,1.2.49.29,1.04.43,1.65.43s1.16-.14,1.65-.43Z"/>
            <path class="cls-6" d="M701.42,942.39c.58.58.88,1.42.88,2.52v4.68h-.77v-4.62c0-.9-.23-1.59-.68-2.06-.46-.47-1.09-.71-1.91-.71-.94,0-1.68.28-2.23.84-.54.56-.81,1.32-.81,2.27v4.27h-.77v-8.01h.74v1.73c.28-.56.69-1,1.24-1.32.55-.32,1.19-.48,1.94-.48,1,0,1.8.29,2.38.87Z"/>
            <path class="cls-6" d="M705.65,949.36c-.58-.19-1.04-.44-1.37-.74l.35-.61c.33.28.75.51,1.27.69.52.18,1.06.28,1.62.28.81,0,1.41-.13,1.79-.4.38-.27.58-.63.58-1.11,0-.34-.11-.6-.32-.8-.21-.19-.47-.34-.78-.43-.31-.09-.73-.19-1.27-.29-.63-.11-1.15-.24-1.54-.37-.39-.13-.72-.35-1-.64-.28-.3-.42-.71-.42-1.23,0-.63.26-1.16.79-1.57.53-.41,1.28-.62,2.25-.62.51,0,1.02.07,1.52.21.5.14.91.33,1.23.57l-.35.61c-.33-.24-.7-.41-1.12-.54-.42-.12-.85-.18-1.29-.18-.75,0-1.31.14-1.69.42-.38.28-.57.64-.57,1.09,0,.36.11.64.32.84.21.2.48.35.79.44.31.1.75.2,1.31.32.62.11,1.13.23,1.51.36.38.13.71.33.97.62.27.29.4.68.4,1.18,0,.66-.28,1.2-.83,1.6-.55.4-1.33.6-2.33.6-.64,0-1.26-.1-1.84-.29Z"/>
            <path class="cls-6" d="M719.57,945.77h-6.89c.02.62.18,1.18.48,1.66.3.49.7.86,1.21,1.13.51.27,1.08.4,1.71.4.52,0,1.01-.09,1.45-.28.45-.19.82-.47,1.11-.84l.45.51c-.35.42-.79.74-1.31.97-.53.23-1.1.34-1.71.34-.8,0-1.51-.17-2.13-.52-.62-.35-1.11-.83-1.47-1.44-.35-.61-.53-1.32-.53-2.1s.17-1.48.5-2.09c.33-.62.79-1.1,1.37-1.45.58-.35,1.24-.52,1.96-.52s1.38.17,1.96.51c.58.34,1.03.82,1.37,1.44.33.61.5,1.31.5,2.09l-.02.21ZM714.24,942.57c-.45.25-.81.6-1.08,1.06-.27.46-.43.97-.47,1.54h6.14c-.03-.57-.18-1.08-.46-1.54-.28-.45-.64-.8-1.09-1.06-.45-.25-.96-.38-1.52-.38s-1.07.13-1.52.38Z"/>
            <path class="cls-6" d="M723.05,949.13c-.61-.35-1.09-.83-1.44-1.45-.35-.62-.52-1.32-.52-2.1s.17-1.49.52-2.11c.35-.62.83-1.1,1.44-1.44.61-.34,1.31-.51,2.09-.51.64,0,1.23.12,1.76.38.53.25.95.62,1.28,1.1l-.57.41c-.29-.4-.64-.7-1.07-.9-.42-.2-.89-.3-1.4-.3-.62,0-1.18.14-1.68.42-.5.28-.89.68-1.17,1.19-.28.51-.42,1.1-.42,1.76s.14,1.25.42,1.77c.28.51.67.91,1.17,1.19.5.28,1.06.42,1.68.42.51,0,.98-.1,1.4-.3.42-.2.78-.5,1.07-.9l.57.41c-.33.48-.75.85-1.28,1.1-.53.25-1.11.38-1.76.38-.78,0-1.47-.17-2.09-.52Z"/>
            <path class="cls-6" d="M734.55,949.09c-.2.18-.44.33-.73.42-.29.1-.6.15-.91.15-.7,0-1.23-.19-1.61-.58-.38-.38-.57-.92-.57-1.6v-5.23h-1.47v-.66h1.47v-1.75h.77v1.75h2.55v.66h-2.55v5.16c0,.52.12.92.38,1.19.25.27.62.41,1.11.41s.92-.15,1.24-.45l.32.54Z"/>
            <path class="cls-6" d="M743.16,945.77h-6.89c.02.62.18,1.18.48,1.66.3.49.7.86,1.2,1.13.51.27,1.08.4,1.71.4.52,0,1.01-.09,1.45-.28.44-.19.82-.47,1.11-.84l.45.51c-.35.42-.79.74-1.31.97-.53.23-1.1.34-1.71.34-.8,0-1.51-.17-2.13-.52-.62-.35-1.11-.83-1.47-1.44-.35-.61-.53-1.32-.53-2.1s.17-1.48.5-2.09c.33-.62.79-1.1,1.38-1.45.58-.35,1.24-.52,1.96-.52s1.38.17,1.96.51c.58.34,1.03.82,1.37,1.44.33.61.5,1.31.5,2.09l-.02.21ZM737.84,942.57c-.45.25-.81.6-1.08,1.06-.27.46-.43.97-.47,1.54h6.14c-.03-.57-.19-1.08-.46-1.54-.28-.45-.64-.8-1.09-1.06-.45-.25-.96-.38-1.52-.38s-1.07.13-1.52.38Z"/>
            <path class="cls-6" d="M749.53,949.09c-.19.18-.44.33-.73.42-.29.1-.6.15-.91.15-.7,0-1.23-.19-1.61-.58s-.57-.92-.57-1.6v-5.23h-1.47v-.66h1.47v-1.75h.77v1.75h2.55v.66h-2.55v5.16c0,.52.12.92.38,1.19.25.27.62.41,1.11.41s.92-.15,1.24-.45l.32.54Z"/>
            <path class="cls-6" d="M758.68,941.58v8.01h-.74v-1.72c-.27.56-.66,1-1.18,1.31-.52.31-1.14.47-1.84.47-1.04,0-1.86-.29-2.46-.87-.59-.58-.89-1.42-.89-2.52v-4.68h.77v4.62c0,.9.23,1.59.69,2.06.46.47,1.11.71,1.95.71.9,0,1.61-.28,2.14-.84.53-.56.79-1.32.79-2.27v-4.27h.77Z"/>
            <path class="cls-6" d="M768.71,945.77h-6.89c.02.62.18,1.18.48,1.66.3.49.7.86,1.2,1.13.51.27,1.08.4,1.71.4.52,0,1.01-.09,1.45-.28.44-.19.82-.47,1.11-.84l.45.51c-.35.42-.79.74-1.31.97-.53.23-1.1.34-1.71.34-.8,0-1.51-.17-2.13-.52-.62-.35-1.11-.83-1.47-1.44-.35-.61-.53-1.32-.53-2.1s.17-1.48.5-2.09c.33-.62.79-1.1,1.38-1.45.58-.35,1.24-.52,1.96-.52s1.38.17,1.96.51c.58.34,1.03.82,1.37,1.44.33.61.5,1.31.5,2.09l-.02.21ZM763.38,942.57c-.45.25-.81.6-1.08,1.06-.27.46-.43.97-.47,1.54h6.14c-.03-.57-.19-1.08-.46-1.54-.28-.45-.64-.8-1.09-1.06-.45-.25-.96-.38-1.52-.38s-1.07.13-1.52.38Z"/>
            <path class="cls-6" d="M772.99,941.99c.52-.31,1.16-.47,1.9-.47v.75l-.18-.02c-.89,0-1.59.28-2.09.84-.5.56-.75,1.33-.75,2.33v4.18h-.77v-8.01h.74v1.75c.25-.58.63-1.03,1.15-1.34Z"/>
            <path class="cls-6" d="M613.08,957.63c.53.51.8,1.25.8,2.23v5.08h-.74v-1.43c-.26.47-.63.84-1.12,1.1-.49.26-1.08.39-1.77.39-.89,0-1.59-.21-2.11-.63-.52-.42-.77-.97-.77-1.66s.24-1.2.71-1.62c.48-.41,1.24-.62,2.28-.62h2.75v-.64c0-.75-.2-1.32-.61-1.7s-1-.58-1.77-.58c-.53,0-1.04.09-1.53.28-.49.18-.9.43-1.24.74l-.38-.55c.4-.36.88-.64,1.44-.84.56-.2,1.15-.3,1.77-.3.99,0,1.75.25,2.29.76ZM612.06,963.92c.46-.31.82-.75,1.05-1.34v-1.5h-2.73c-.79,0-1.36.14-1.71.43-.35.29-.53.68-.53,1.18s.19.93.58,1.24c.39.3.94.45,1.64.45.67,0,1.23-.15,1.7-.46Z"/>
            <path class="cls-6" d="M624.18,953.55v11.39h-.75v-1.89c-.32.62-.76,1.1-1.34,1.44-.57.34-1.22.51-1.95.51s-1.42-.17-2.03-.52c-.6-.35-1.08-.83-1.42-1.44-.34-.61-.51-1.32-.51-2.1s.17-1.49.51-2.11c.34-.62.82-1.1,1.42-1.44.6-.34,1.28-.51,2.03-.51s1.36.17,1.93.51c.57.34,1.02.81,1.34,1.41v-5.24h.77ZM621.84,963.88c.49-.29.87-.69,1.15-1.2.28-.51.42-1.09.42-1.75s-.14-1.24-.42-1.75c-.28-.51-.67-.91-1.15-1.2-.49-.29-1.04-.43-1.65-.43s-1.16.14-1.65.43c-.49.29-.87.69-1.15,1.2-.28.51-.42,1.1-.42,1.75s.14,1.24.42,1.75c.28.51.67.91,1.15,1.2.49.29,1.04.43,1.65.43s1.16-.14,1.65-.43Z"/>
            <path class="cls-6" d="M627.36,954.81c-.12-.12-.19-.26-.19-.44s.06-.32.19-.45c.12-.12.27-.18.44-.18s.32.06.45.18c.12.12.18.26.18.44s-.06.32-.18.45c-.12.12-.27.18-.45.18s-.32-.06-.44-.18ZM627.42,956.93h.77v8.01h-.77v-8.01Z"/>
            <path class="cls-6" d="M637.47,957.39c.6.35,1.08.83,1.42,1.44.34.61.51,1.32.51,2.1s-.17,1.49-.51,2.11c-.34.62-.82,1.1-1.42,1.44-.6.34-1.28.51-2.03.51-.71,0-1.35-.17-1.92-.5-.57-.33-1.02-.8-1.34-1.39v4.8h-.77v-10.99h.74v1.89c.32-.61.76-1.09,1.34-1.44.58-.34,1.23-.51,1.94-.51s1.42.17,2.03.52ZM637.06,963.88c.49-.29.88-.69,1.16-1.2.28-.51.42-1.09.42-1.75s-.14-1.24-.42-1.75c-.28-.51-.67-.91-1.16-1.2-.49-.29-1.04-.43-1.66-.43s-1.16.14-1.65.43c-.49.29-.87.69-1.15,1.2-.28.51-.42,1.1-.42,1.75s.14,1.24.42,1.75c.28.51.67.91,1.15,1.2.49.29,1.04.43,1.65.43s1.17-.14,1.66-.43Z"/>
            <path class="cls-6" d="M641.73,954.81c-.12-.12-.18-.26-.18-.44s.06-.32.18-.45c.12-.12.27-.18.45-.18s.32.06.45.18c.12.12.18.26.18.44s-.06.32-.18.45c-.12.12-.27.18-.45.18s-.32-.06-.45-.18ZM641.79,956.93h.77v8.01h-.77v-8.01Z"/>
            <path class="cls-6" d="M645.98,964.71c-.58-.19-1.04-.44-1.37-.74l.35-.61c.33.28.75.51,1.27.69.52.18,1.06.28,1.62.28.81,0,1.4-.13,1.79-.4.38-.27.58-.63.58-1.11,0-.34-.11-.6-.31-.8-.21-.19-.47-.34-.78-.43-.31-.09-.73-.19-1.27-.29-.63-.11-1.15-.24-1.54-.37-.39-.13-.72-.35-1-.64-.28-.3-.41-.71-.41-1.23,0-.63.26-1.16.79-1.57.53-.41,1.28-.62,2.25-.62.51,0,1.02.07,1.52.21.5.14.91.33,1.23.57l-.35.61c-.33-.24-.7-.41-1.12-.54-.42-.12-.85-.18-1.29-.18-.75,0-1.31.14-1.69.42-.38.28-.57.64-.57,1.09,0,.36.11.64.32.84.21.2.48.35.79.44.31.1.75.2,1.31.32.62.11,1.13.23,1.51.36.38.13.71.33.97.62.27.29.4.68.4,1.18,0,.67-.28,1.2-.83,1.6s-1.33.6-2.33.6c-.64,0-1.26-.1-1.84-.29Z"/>
            <path class="cls-6" d="M654.22,964.48c-.61-.35-1.09-.83-1.44-1.45-.35-.62-.52-1.32-.52-2.1s.17-1.49.52-2.11c.35-.62.83-1.1,1.44-1.44.61-.34,1.31-.51,2.09-.51.65,0,1.23.12,1.76.38s.96.62,1.28,1.1l-.57.41c-.29-.4-.64-.7-1.07-.9-.42-.2-.89-.3-1.41-.3-.62,0-1.18.14-1.68.42-.5.28-.89.68-1.17,1.19-.28.51-.42,1.1-.42,1.76s.14,1.25.42,1.77c.28.51.67.91,1.17,1.19.5.28,1.06.42,1.68.42.51,0,.98-.1,1.41-.3s.78-.5,1.07-.9l.57.41c-.33.48-.75.85-1.28,1.1s-1.11.38-1.76.38c-.78,0-1.47-.17-2.09-.52Z"/>
            <path class="cls-6" d="M661.59,954.81c-.12-.12-.18-.26-.18-.44s.06-.32.18-.45c.12-.12.27-.18.45-.18s.32.06.45.18c.12.12.18.26.18.44s-.06.32-.18.45c-.12.12-.27.18-.45.18s-.32-.06-.45-.18ZM661.65,956.93h.77v8.01h-.77v-8.01Z"/>
            <path class="cls-6" d="M671.95,957.75c.58.58.88,1.42.88,2.52v4.68h-.77v-4.62c0-.9-.23-1.59-.68-2.06s-1.09-.71-1.91-.71c-.94,0-1.68.28-2.23.84-.54.56-.81,1.32-.81,2.27v4.27h-.77v-8.01h.74v1.73c.28-.56.69-1,1.24-1.32.55-.32,1.19-.48,1.94-.48,1,0,1.79.29,2.38.87Z"/>
            <path class="cls-6" d="M683.22,956.93v7.15c0,1.33-.32,2.31-.97,2.95-.65.63-1.62.95-2.92.95-.74,0-1.43-.11-2.09-.34-.65-.23-1.18-.54-1.58-.94l.41-.58c.4.37.88.66,1.44.86.56.2,1.16.31,1.8.31,1.06,0,1.85-.25,2.37-.76.51-.51.77-1.29.77-2.36v-1.35c-.33.58-.78,1.03-1.37,1.35-.58.32-1.24.48-1.96.48s-1.42-.17-2.03-.5c-.61-.33-1.09-.79-1.44-1.39-.35-.59-.52-1.26-.52-2.01s.17-1.42.52-2.01c.35-.59.83-1.05,1.44-1.38.61-.33,1.29-.49,2.03-.49s1.4.16,2,.49c.59.33,1.05.79,1.37,1.38v-1.81h.74ZM680.87,963.55c.5-.27.89-.65,1.17-1.14.28-.49.42-1.04.42-1.66s-.14-1.18-.42-1.66c-.28-.48-.67-.86-1.17-1.13-.5-.27-1.06-.41-1.69-.41s-1.18.14-1.68.41c-.5.27-.88.65-1.17,1.13-.28.48-.42,1.03-.42,1.66s.14,1.18.42,1.66c.28.49.67.87,1.17,1.14.5.27,1.06.41,1.68.41s1.19-.14,1.69-.41Z"/>
            <path class="cls-6" d="M697.19,961.12h-6.89c.02.62.18,1.18.48,1.66.3.49.7.86,1.2,1.13.51.27,1.08.4,1.71.4.52,0,1-.09,1.45-.28.44-.19.82-.47,1.11-.84l.45.51c-.35.42-.79.74-1.31.97-.53.23-1.1.34-1.71.34-.8,0-1.51-.17-2.13-.52-.62-.35-1.11-.83-1.46-1.44-.35-.61-.53-1.32-.53-2.1s.17-1.48.5-2.09c.33-.62.79-1.1,1.37-1.45.58-.35,1.24-.52,1.96-.52s1.38.17,1.96.51c.58.34,1.03.82,1.37,1.44.33.61.5,1.31.5,2.09v.21ZM691.86,957.92c-.45.25-.81.6-1.08,1.06-.27.46-.43.97-.47,1.54h6.14c-.03-.57-.18-1.08-.46-1.54-.28-.45-.64-.8-1.09-1.06-.45-.25-.96-.38-1.52-.38s-1.07.13-1.52.38Z"/>
            <path class="cls-6" d="M699.58,953.55h.77v11.39h-.77v-11.39Z"/>
            <path class="cls-6" d="M703.53,954.81c-.12-.12-.18-.26-.18-.44s.06-.32.18-.45c.12-.12.27-.18.44-.18s.32.06.45.18c.12.12.18.26.18.44s-.06.32-.18.45c-.12.12-.27.18-.45.18s-.32-.06-.44-.18ZM703.59,956.93h.77v8.01h-.77v-8.01Z"/>
            <path class="cls-6" d="M711.57,964.44c-.2.18-.44.33-.73.42-.29.1-.6.15-.91.15-.7,0-1.23-.19-1.61-.58-.38-.38-.57-.92-.57-1.6v-5.23h-1.47v-.66h1.47v-1.75h.77v1.75h2.55v.66h-2.55v5.16c0,.52.12.92.38,1.19.25.27.62.41,1.11.41s.92-.15,1.24-.45l.32.54Z"/>
            <path class="cls-6" d="M713.31,964.81c-.13-.13-.19-.28-.19-.47s.06-.34.19-.46c.13-.12.28-.18.45-.18s.33.06.45.18c.13.12.19.28.19.46s-.06.34-.19.47c-.13.13-.28.19-.45.19s-.33-.06-.45-.19Z"/>
          </g>
          <g>
            <path class="cls-6" d="M418.14,697.12h1.04v13.39h8.25v.94h-9.29v-14.33Z"/>
            <path class="cls-6" d="M432.1,710.6c-1.13-.63-2.02-1.5-2.67-2.61-.65-1.11-.97-2.34-.97-3.71s.32-2.6.97-3.71c.65-1.11,1.54-1.98,2.67-2.61,1.13-.63,2.4-.95,3.81-.95s2.67.31,3.81.94c1.13.63,2.02,1.49,2.67,2.6.65,1.11.97,2.35.97,3.73s-.32,2.62-.97,3.73c-.65,1.11-1.54,1.97-2.67,2.6-1.13.63-2.4.94-3.81.94s-2.67-.32-3.81-.95ZM439.16,709.77c.97-.55,1.73-1.3,2.29-2.26.56-.96.84-2.04.84-3.22s-.28-2.26-.84-3.22c-.56-.96-1.32-1.72-2.29-2.26-.97-.55-2.05-.82-3.26-.82s-2.29.27-3.27.82c-.98.55-1.74,1.3-2.3,2.26-.56.96-.84,2.04-.84,3.22s.28,2.26.84,3.22c.56.96,1.33,1.72,2.3,2.26.98.55,2.06.82,3.27.82s2.29-.27,3.26-.82Z"/>
            <path class="cls-6" d="M456.93,711.45l-3.42-4.79c-.51.07-.97.1-1.39.1h-4.09v4.69h-1.04v-14.33h5.14c1.8,0,3.21.43,4.24,1.28,1.02.85,1.54,2.04,1.54,3.55,0,1.13-.29,2.08-.87,2.86-.58.77-1.41,1.31-2.49,1.63l3.58,5.02h-1.19ZM452.12,705.84c1.53,0,2.7-.34,3.5-1.01.81-.67,1.21-1.63,1.21-2.88s-.4-2.2-1.21-2.88c-.81-.68-1.97-1.01-3.5-1.01h-4.09v7.78h4.09Z"/>
            <path class="cls-6" d="M471.61,710.51v.94h-9.89v-14.33h9.58v.94h-8.54v5.65h7.64v.92h-7.64v5.88h8.84Z"/>
            <path class="cls-6" d="M488.97,711.45l-.02-12.26-6,10.36h-.51l-6-10.32v12.22h-1.02v-14.33h.88l6.41,11.08,6.41-11.08h.86l.02,14.33h-1.02Z"/>
            <path class="cls-6" d="M500.25,697.12h1.04v14.33h-1.04v-14.33Z"/>
            <path class="cls-6" d="M515.67,698.4c1.02.85,1.54,2.04,1.54,3.55s-.51,2.68-1.54,3.53c-1.02.85-2.44,1.28-4.24,1.28h-4.09v4.69h-1.04v-14.33h5.14c1.8,0,3.21.43,4.24,1.28ZM514.93,704.82c.81-.67,1.21-1.62,1.21-2.87s-.4-2.2-1.21-2.88c-.81-.68-1.97-1.01-3.5-1.01h-4.09v7.76h4.09c1.53,0,2.7-.33,3.5-1Z"/>
            <path class="cls-6" d="M521.7,711.01c-.95-.36-1.69-.83-2.22-1.4l.47-.78c.5.53,1.18.97,2.04,1.3.85.33,1.75.5,2.69.5,1.36,0,2.39-.26,3.09-.78.7-.52,1.04-1.19,1.04-2.03,0-.64-.18-1.15-.55-1.54-.37-.38-.83-.68-1.37-.88-.55-.21-1.28-.42-2.21-.63-1.05-.26-1.89-.51-2.53-.76-.63-.25-1.17-.62-1.62-1.14-.44-.51-.66-1.2-.66-2.06,0-.7.18-1.33.55-1.91.37-.58.93-1.04,1.69-1.38.76-.34,1.7-.51,2.84-.51.79,0,1.57.12,2.33.35.76.23,1.43.55,1.99.94l-.39.84c-.57-.4-1.2-.7-1.89-.9-.69-.2-1.37-.31-2.04-.31-1.32,0-2.33.27-3.01.8-.68.53-1.02,1.22-1.02,2.07,0,.64.18,1.15.55,1.54.37.38.83.68,1.37.88.55.2,1.29.42,2.23.66,1.05.26,1.89.51,2.52.76.63.25,1.16.62,1.61,1.12.44.5.66,1.17.66,2.02,0,.7-.19,1.33-.56,1.9-.38.57-.95,1.03-1.73,1.37-.78.34-1.73.51-2.87.51-1.05,0-2.05-.18-3-.54Z"/>
            <path class="cls-6" d="M534.78,709.98c-1-1.05-1.5-2.59-1.5-4.61v-8.25h1.04v8.21c0,1.76.4,3.08,1.21,3.95.81.87,1.97,1.31,3.5,1.31s2.67-.44,3.48-1.31c.8-.87,1.21-2.19,1.21-3.95v-8.21h1.04v8.25c0,2.02-.5,3.56-1.51,4.61-1.01,1.05-2.42,1.58-4.24,1.58s-3.22-.53-4.23-1.58Z"/>
            <path class="cls-6" d="M563.18,711.45l-.02-12.26-6,10.36h-.51l-6-10.32v12.22h-1.02v-14.33h.88l6.41,11.08,6.41-11.08h.86l.02,14.33h-1.02Z"/>
            <path class="cls-6" d="M574.46,697.12h5.67c1.49,0,2.81.31,3.96.92,1.15.61,2.05,1.46,2.69,2.55s.96,2.32.96,3.7-.32,2.61-.96,3.7c-.64,1.08-1.54,1.93-2.69,2.55-1.15.61-2.47.92-3.96.92h-5.67v-14.33ZM580.05,710.51c1.32,0,2.49-.26,3.5-.79,1.01-.53,1.79-1.26,2.33-2.2.55-.94.82-2.02.82-3.23s-.27-2.29-.82-3.23c-.55-.94-1.32-1.68-2.33-2.2-1.01-.53-2.18-.79-3.5-.79h-4.54v12.45h4.54Z"/>
            <path class="cls-6" d="M593.64,710.6c-1.13-.63-2.02-1.5-2.67-2.61-.65-1.11-.97-2.34-.97-3.71s.32-2.6.97-3.71c.65-1.11,1.54-1.98,2.67-2.61,1.13-.63,2.4-.95,3.81-.95s2.68.31,3.81.94c1.13.63,2.02,1.49,2.67,2.6.65,1.11.97,2.35.97,3.73s-.33,2.62-.97,3.73c-.65,1.11-1.54,1.97-2.67,2.6-1.13.63-2.4.94-3.81.94s-2.67-.32-3.81-.95ZM600.71,709.77c.97-.55,1.73-1.3,2.29-2.26.56-.96.84-2.04.84-3.22s-.28-2.26-.84-3.22c-.56-.96-1.32-1.72-2.29-2.26-.97-.55-2.05-.82-3.26-.82s-2.29.27-3.26.82c-.98.55-1.74,1.3-2.3,2.26-.56.96-.84,2.04-.84,3.22s.28,2.26.84,3.22c.56.96,1.33,1.72,2.3,2.26s2.06.82,3.26.82,2.29-.27,3.26-.82Z"/>
            <path class="cls-6" d="M608.53,697.12h1.04v13.39h8.25v.94h-9.3v-14.33Z"/>
            <path class="cls-6" d="M622.49,710.6c-1.13-.63-2.02-1.5-2.67-2.61-.65-1.11-.97-2.34-.97-3.71s.32-2.6.97-3.71c.65-1.11,1.54-1.98,2.67-2.61,1.13-.63,2.4-.95,3.81-.95s2.67.31,3.81.94c1.13.63,2.02,1.49,2.67,2.6.65,1.11.97,2.35.97,3.73s-.33,2.62-.97,3.73c-.65,1.11-1.54,1.97-2.67,2.6-1.13.63-2.4.94-3.81.94s-2.67-.32-3.81-.95ZM629.55,709.77c.97-.55,1.73-1.3,2.29-2.26.56-.96.84-2.04.84-3.22s-.28-2.26-.84-3.22c-.56-.96-1.32-1.72-2.29-2.26-.97-.55-2.05-.82-3.26-.82s-2.29.27-3.27.82c-.98.55-1.74,1.3-2.3,2.26s-.84,2.04-.84,3.22.28,2.26.84,3.22c.56.96,1.33,1.72,2.3,2.26.98.55,2.06.82,3.27.82s2.29-.27,3.26-.82Z"/>
            <path class="cls-6" d="M647.32,711.45l-3.42-4.79c-.5.07-.97.1-1.39.1h-4.09v4.69h-1.04v-14.33h5.14c1.8,0,3.21.43,4.24,1.28,1.02.85,1.54,2.04,1.54,3.55,0,1.13-.29,2.08-.87,2.86-.58.77-1.41,1.31-2.49,1.63l3.58,5.02h-1.19ZM642.51,705.84c1.53,0,2.7-.34,3.5-1.01.8-.67,1.21-1.63,1.21-2.88s-.4-2.2-1.21-2.88c-.81-.68-1.97-1.01-3.5-1.01h-4.09v7.78h4.09Z"/>
            <path class="cls-6" d="M658.14,711.01c-.95-.36-1.69-.83-2.22-1.4l.47-.78c.5.53,1.18.97,2.04,1.3.85.33,1.75.5,2.69.5,1.37,0,2.4-.26,3.09-.78.7-.52,1.04-1.19,1.04-2.03,0-.64-.18-1.15-.55-1.54-.37-.38-.83-.68-1.37-.88-.54-.21-1.28-.42-2.21-.63-1.05-.26-1.89-.51-2.53-.76-.63-.25-1.17-.62-1.62-1.14-.44-.51-.66-1.2-.66-2.06,0-.7.18-1.33.55-1.91.37-.58.93-1.04,1.69-1.38.76-.34,1.7-.51,2.83-.51.79,0,1.57.12,2.33.35.76.23,1.43.55,1.99.94l-.39.84c-.57-.4-1.21-.7-1.89-.9-.69-.2-1.37-.31-2.04-.31-1.32,0-2.33.27-3.01.8-.68.53-1.02,1.22-1.02,2.07,0,.64.18,1.15.55,1.54.37.38.83.68,1.37.88.55.2,1.29.42,2.23.66,1.05.26,1.89.51,2.52.76.63.25,1.16.62,1.61,1.12.44.5.67,1.17.67,2.02,0,.7-.19,1.33-.56,1.9-.38.57-.95,1.03-1.73,1.37-.78.34-1.73.51-2.87.51-1.05,0-2.05-.18-3-.54Z"/>
            <path class="cls-6" d="M669.84,697.12h1.05v14.33h-1.05v-14.33Z"/>
            <path class="cls-6" d="M678.62,698.06h-5.16v-.94h11.36v.94h-5.16v13.39h-1.04v-13.39Z"/>
            <path class="cls-6" d="M701.53,707.42h-8.31l-1.82,4.03h-1.12l6.59-14.33h1.04l6.59,14.33h-1.13l-1.84-4.03ZM701.14,706.54l-3.77-8.27-3.75,8.27h7.51Z"/>
            <path class="cls-6" d="M720.65,711.45l-.02-12.26-6,10.36h-.51l-6-10.32v12.22h-1.02v-14.33h.88l6.41,11.08,6.41-11.08h.86l.02,14.33h-1.02Z"/>
            <path class="cls-6" d="M736.56,710.51v.94h-9.89v-14.33h9.58v.94h-8.54v5.65h7.64v.92h-7.64v5.88h8.84Z"/>
            <path class="cls-6" d="M743.11,698.06h-5.16v-.94h11.36v.94h-5.16v13.39h-1.04v-13.39Z"/>
          </g>
          <g>
            <path class="cls-11" d="M386.03,761.37v16.1h-1.68v-7.43h-10.07v7.43h-1.7v-16.1h1.7v7.18h10.07v-7.18h1.68Z"/>
            <path class="cls-11" d="M408.27,773.17h-8.97l-1.93,4.3h-1.77l7.36-16.1h1.68l7.36,16.1h-1.79l-1.93-4.3ZM407.65,771.79l-3.86-8.65-3.86,8.65h7.73Z"/>
            <path class="cls-11" d="M435.02,761.37v16.1h-1.4l-10.35-13.07v13.07h-1.7v-16.1h1.4l10.37,13.07v-13.07h1.68Z"/>
            <path class="cls-11" d="M447.17,761.37h6.56c1.7,0,3.2.34,4.51,1.02,1.3.68,2.32,1.63,3.04,2.85.72,1.22,1.08,2.61,1.08,4.17s-.36,2.96-1.08,4.17c-.72,1.22-1.73,2.17-3.04,2.85-1.3.68-2.81,1.02-4.51,1.02h-6.56v-16.1ZM453.63,776c1.41,0,2.65-.28,3.7-.84s1.88-1.33,2.46-2.32c.58-.99.87-2.13.87-3.42s-.29-2.43-.87-3.42c-.58-.99-1.4-1.76-2.46-2.32-1.06-.56-2.29-.84-3.7-.84h-4.76v13.16h4.76Z"/>
            <path class="cls-11" d="M496.99,777.47l-3.68-5.18c-.41.05-.84.07-1.29.07h-4.32v5.11h-1.7v-16.1h6.03c2.05,0,3.67.49,4.83,1.47,1.17.98,1.75,2.33,1.75,4.05,0,1.26-.32,2.32-.95,3.19-.64.87-1.55,1.49-2.73,1.87l3.93,5.52h-1.86ZM495.63,769.86c.84-.7,1.27-1.69,1.27-2.97s-.42-2.3-1.27-3c-.84-.7-2.06-1.05-3.66-1.05h-4.28v8.07h4.28c1.59,0,2.81-.35,3.66-1.06Z"/>
            <path class="cls-11" d="M512.23,776.54c-1.3-.71-2.31-1.69-3.04-2.93-.73-1.24-1.09-2.64-1.09-4.19s.36-2.94,1.09-4.19c.73-1.24,1.74-2.22,3.04-2.93,1.3-.71,2.74-1.07,4.34-1.07s3.03.35,4.31,1.06c1.28.7,2.29,1.68,3.02,2.93.74,1.25,1.1,2.65,1.1,4.2s-.37,2.95-1.1,4.2c-.74,1.25-1.74,2.23-3.02,2.93-1.28.71-2.72,1.06-4.31,1.06s-3.04-.36-4.34-1.07ZM520.01,775.23c1.03-.58,1.83-1.37,2.41-2.39.58-1.02.87-2.16.87-3.42s-.29-2.4-.87-3.42c-.58-1.02-1.39-1.82-2.41-2.39-1.03-.58-2.18-.86-3.45-.86s-2.43.29-3.46.86-1.85,1.37-2.44,2.39c-.59,1.02-.89,2.16-.89,3.42s.3,2.4.89,3.42c.59,1.02,1.4,1.82,2.44,2.39s2.19.86,3.46.86,2.42-.29,3.45-.86Z"/>
            <path class="cls-11" d="M545.59,773.17h-8.97l-1.93,4.3h-1.77l7.36-16.1h1.68l7.36,16.1h-1.79l-1.93-4.3ZM544.97,771.79l-3.86-8.65-3.86,8.65h7.73Z"/>
            <path class="cls-11" d="M559.88,777.03c-1.1-.38-1.94-.89-2.54-1.52l.67-1.31c.58.58,1.36,1.05,2.32,1.42.97.36,1.96.54,2.99.54,1.44,0,2.52-.26,3.24-.79.72-.53,1.08-1.22,1.08-2.06,0-.64-.2-1.16-.59-1.54-.39-.38-.87-.68-1.44-.89-.57-.21-1.36-.43-2.37-.68-1.21-.31-2.18-.6-2.9-.89-.72-.28-1.34-.72-1.85-1.3-.51-.58-.77-1.37-.77-2.37,0-.81.21-1.55.64-2.22.43-.67,1.09-1.2,1.98-1.6.89-.4,1.99-.6,3.31-.6.92,0,1.82.13,2.7.38.88.25,1.64.6,2.29,1.05l-.57,1.36c-.67-.44-1.4-.78-2.16-1-.77-.22-1.52-.33-2.25-.33-1.41,0-2.47.27-3.19.82-.71.54-1.07,1.25-1.07,2.1,0,.64.2,1.16.59,1.55.39.39.88.69,1.47.9.59.21,1.38.43,2.38.68,1.18.29,2.14.58,2.86.86.73.28,1.35.71,1.85,1.29.51.58.76,1.35.76,2.33,0,.81-.22,1.55-.66,2.22s-1.11,1.2-2.01,1.59c-.9.39-2.02.59-3.34.59-1.2,0-2.34-.19-3.44-.58Z"/>
            <path class="cls-11" d="M582.83,762.84h-5.66v-1.47h13.02v1.47h-5.66v14.63h-1.7v-14.63Z"/>
            <path class="cls-11" d="M611.19,776v1.47h-11.39v-16.1h11.04v1.47h-9.34v5.73h8.33v1.45h-8.33v5.98h9.68Z"/>
            <path class="cls-11" d="M622.09,761.37h6.55c1.7,0,3.21.34,4.51,1.02,1.3.68,2.32,1.63,3.04,2.85.72,1.22,1.08,2.61,1.08,4.17s-.36,2.96-1.08,4.17c-.72,1.22-1.73,2.17-3.04,2.85-1.3.68-2.81,1.02-4.51,1.02h-6.55v-16.1ZM628.55,776c1.41,0,2.64-.28,3.7-.84s1.88-1.33,2.46-2.32c.58-.99.88-2.13.88-3.42s-.29-2.43-.88-3.42c-.58-.99-1.4-1.76-2.46-2.32-1.06-.56-2.29-.84-3.7-.84h-4.76v13.16h4.76Z"/>
            <path class="cls-11" d="M663.6,776.55c-1.28-.71-2.29-1.68-3.01-2.93-.73-1.25-1.09-2.65-1.09-4.2s.36-2.95,1.09-4.2c.73-1.25,1.74-2.23,3.02-2.93,1.29-.71,2.73-1.06,4.32-1.06,1.2,0,2.3.2,3.31.6,1.01.4,1.87.98,2.58,1.75l-1.08,1.08c-1.26-1.27-2.85-1.91-4.76-1.91-1.27,0-2.43.29-3.47.87-1.04.58-1.86,1.38-2.45,2.39-.59,1.01-.89,2.15-.89,3.4s.29,2.39.89,3.4c.59,1.01,1.41,1.81,2.45,2.39,1.04.58,2.2.87,3.47.87,1.93,0,3.52-.64,4.76-1.93l1.08,1.08c-.71.77-1.57,1.35-2.59,1.76-1.02.41-2.13.61-3.32.61-1.6,0-3.03-.35-4.31-1.06Z"/>
            <path class="cls-11" d="M686.71,776.54c-1.3-.71-2.31-1.69-3.04-2.93-.73-1.24-1.09-2.64-1.09-4.19s.36-2.94,1.09-4.19c.73-1.24,1.74-2.22,3.04-2.93,1.29-.71,2.74-1.07,4.34-1.07s3.03.35,4.31,1.06c1.28.7,2.29,1.68,3.02,2.93.74,1.25,1.1,2.65,1.1,4.2s-.37,2.95-1.1,4.2c-.74,1.25-1.75,2.23-3.02,2.93-1.28.71-2.72,1.06-4.31,1.06s-3.04-.36-4.34-1.07ZM694.5,775.23c1.03-.58,1.83-1.37,2.42-2.39.58-1.02.87-2.16.87-3.42s-.29-2.4-.87-3.42c-.58-1.02-1.39-1.82-2.42-2.39-1.03-.58-2.18-.86-3.45-.86s-2.43.29-3.46.86c-1.04.58-1.85,1.37-2.44,2.39-.59,1.02-.89,2.16-.89,3.42s.3,2.4.89,3.42c.59,1.02,1.4,1.82,2.44,2.39,1.04.58,2.19.86,3.46.86s2.42-.29,3.45-.86Z"/>
            <path class="cls-11" d="M711.91,762.84v6.33h8.33v1.47h-8.33v6.83h-1.7v-16.1h11.04v1.47h-9.34Z"/>
            <path class="cls-11" d="M733.37,762.84v6.33h8.33v1.47h-8.33v6.83h-1.7v-16.1h11.04v1.47h-9.34Z"/>
            <path class="cls-11" d="M764.51,776v1.47h-11.38v-16.1h11.04v1.47h-9.34v5.73h8.33v1.45h-8.33v5.98h9.68Z"/>
            <path class="cls-11" d="M786.8,776v1.47h-11.39v-16.1h11.04v1.47h-9.34v5.73h8.33v1.45h-8.33v5.98h9.68Z"/>
          </g>
          <g>
            <g>
              <path class="cls-12" d="M503.13,460.49v-16.03h5.23c1.67,0,2.98.36,3.93,1.08s1.42,1.81,1.42,3.25c0,.71-.23,1.35-.68,1.91-.46.56-1.05.98-1.79,1.25.97.21,1.73.68,2.28,1.42.55.74.83,1.6.83,2.59,0,1.47-.48,2.59-1.43,3.36-.95.77-2.24,1.16-3.87,1.16h-5.92ZM505.3,451.28h3.51c.81,0,1.46-.22,1.97-.67.51-.44.76-1.06.76-1.85,0-.87-.27-1.51-.82-1.94-.55-.43-1.33-.64-2.36-.64h-3.06v5.11ZM505.3,452.98v5.8h3.75c.98,0,1.75-.24,2.3-.73.55-.49.83-1.17.83-2.07,0-.94-.23-1.67-.69-2.2-.46-.53-1.17-.8-2.12-.8h-4.07Z"/>
              <path class="cls-12" d="M527.73,453.06h-7.34v5.72h8.46v1.71h-10.63v-16.03h10.51v1.71h-8.34v5.18h7.34v1.71Z"/>
              <path class="cls-12" d="M540.8,456.46c0-.73-.28-1.34-.83-1.83-.55-.49-1.53-.91-2.93-1.24-1.7-.4-3.02-1-3.97-1.79-.95-.79-1.43-1.78-1.43-2.97,0-1.25.51-2.29,1.54-3.13s2.35-1.26,3.98-1.26c1.75,0,3.15.48,4.19,1.44,1.04.96,1.54,2.08,1.5,3.35l-.02.07h-2.07c0-.94-.31-1.7-.93-2.28-.62-.58-1.51-.87-2.67-.87-1.08,0-1.91.24-2.48.73-.58.49-.86,1.12-.86,1.91,0,.7.31,1.28.94,1.74.62.47,1.64.88,3.04,1.23,1.69.42,2.97,1.03,3.85,1.85s1.32,1.82,1.32,3.03c0,1.29-.53,2.33-1.59,3.12-1.06.79-2.44,1.18-4.14,1.18-1.6,0-3.01-.43-4.24-1.3-1.23-.87-1.83-2.03-1.79-3.48l.02-.07h2.07c0,1.03.38,1.81,1.13,2.34.76.54,1.69.8,2.81.8s1.96-.23,2.6-.69c.64-.46.96-1.08.96-1.87Z"/>
              <path class="cls-12" d="M557.66,446.17h-5.15v14.32h-2.17v-14.32h-5.14v-1.71h12.46v1.71Z"/>
              <path class="cls-12" d="M569.26,460.49h-2.18v-16.03h2.18v16.03Z"/>
              <path class="cls-12" d="M586.14,460.49h-2.17l-7.72-12.39-.07.02v12.37h-2.17v-16.03h2.17l7.72,12.37.07-.02v-12.35h2.17v16.03Z"/>
              <path class="cls-12" d="M607.91,446.17h-5.15v14.32h-2.17v-14.32h-5.14v-1.71h12.46v1.71Z"/>
              <path class="cls-12" d="M622.76,453.91c0,1.96-.61,3.58-1.82,4.88-1.21,1.29-2.79,1.94-4.73,1.94s-3.39-.65-4.56-1.94c-1.17-1.29-1.76-2.92-1.76-4.88v-2.85c0-1.95.59-3.58,1.76-4.88,1.17-1.3,2.69-1.95,4.56-1.95s3.51.65,4.73,1.94c1.21,1.3,1.82,2.92,1.82,4.88v2.85ZM620.59,451.04c0-1.47-.4-2.67-1.19-3.61s-1.86-1.41-3.19-1.41c-1.26,0-2.27.47-3.02,1.41s-1.13,2.14-1.13,3.61v2.87c0,1.48.38,2.69,1.13,3.63.75.94,1.76,1.41,3.02,1.41,1.34,0,2.41-.47,3.2-1.4.79-.94,1.18-2.15,1.18-3.64v-2.87Z"/>
              <path class="cls-12" d="M629.89,454.94l.3,2h.07s.43-2,.43-2l2.94-10.48h1.92l2.96,10.48.44,2.06h.07l.32-2.06,2.39-10.48h2.17l-3.86,16.03h-1.94l-3.16-11.12-.29-1.44h-.07l-.28,1.44-3.21,11.12h-1.94l-3.85-16.03h2.16l2.44,10.48Z"/>
              <path class="cls-12" d="M659.38,460.49h-2.17l-7.72-12.39-.07.02v12.37h-2.17v-16.03h2.17l7.72,12.37.07-.02v-12.35h2.17v16.03Z"/>
            </g>
            <path class="cls-4" d="M591.49,145.82c.97,13.66-20.13,20.92-14.9,37.32,6.15-17.53,28.94-17.74,28.94-38.41s-19.8-23.84-22.42-34.97c-2.93-12.45,20.54-22.41,15.77-38.09-6.69,17.3-29.85,19.76-29.85,38.77s21.7,24.77,22.45,35.39ZM557.29,127.02c2.01,4.3,4.33,7.48,7.08,10.33,15.08,15.68,14.35,4.38,5.99,22.58-1.51,3.29-2.75,6.8-2.42,9.12,1.98-4.75,5.75-8.79,8.88-12.52,8.58-10.21,5.57-11.92-1.94-18.5-3.64-3.19-7.92-7.1-10.84-12.19-7.08-12.34-4.85-25.9,1.41-34.44-5.1,1.24-16.13,18.54-8.17,35.6ZM657.31,202.52c.2-2.97.33-6.01.33-9.15h-152.76c0,93.39,92.42,114.12,133.49,62.22,63.61-2.75,50.21-62.89,18.95-53.08ZM581.24,268.53c-26.6,0-55.03-18.98-60.54-60.27h16.92c.65,33.33,20.88,54.17,43.62,60.27,0,0,0,0,0,0h0ZM643.33,248.57c6.28-10.02,10.83-22.21,12.95-36.54,18.2-5.85,33.7,28.56-12.95,36.54Z"/>
            <path class="cls-9" d="M591.49,140.14c.97,13.66-20.13,20.92-14.9,37.32,6.15-17.53,28.94-17.74,28.94-38.41s-19.8-23.84-22.42-34.97c-2.93-12.45,20.54-22.41,15.77-38.09-6.69,17.3-29.85,19.76-29.85,38.77s21.7,24.77,22.45,35.39ZM557.29,121.34c2.01,4.3,4.33,7.48,7.08,10.33,15.08,15.68,14.35,4.38,5.99,22.58-1.51,3.29-2.75,6.8-2.42,9.12,1.98-4.75,5.75-8.79,8.88-12.52,8.58-10.21,5.57-11.92-1.94-18.5-3.64-3.19-7.92-7.1-10.84-12.19-7.08-12.34-4.85-25.9,1.41-34.44-5.1,1.24-16.13,18.54-8.17,35.6ZM657.31,196.84c.2-2.97.33-6.01.33-9.15h-152.76c0,93.39,92.42,114.12,133.49,62.22,63.61-2.75,50.21-62.89,18.95-53.08ZM581.24,262.85c-26.6,0-55.03-18.98-60.54-60.27h16.92c.65,33.33,20.88,54.17,43.62,60.27,0,0,0,0,0,0h0ZM643.33,242.89c6.28-10.02,10.83-22.21,12.95-36.54,18.2-5.85,33.7,28.56-12.95,36.54Z"/>
            <polygon class="cls-12" points="708.49 509.6 455.77 509.6 455.77 138.59 530.11 138.59 530.11 147.52 464.7 147.52 464.7 500.67 699.56 500.67 699.56 147.52 634.15 147.52 634.15 138.59 708.49 138.59 708.49 509.6"/>
            <g>
              <path class="cls-12" d="M502.58,297.08h11.62c9.1,0,13.64,5.65,13.64,16.94,0,4.31-.59,7.52-1.77,9.6-1.18,2.09-3.27,3.67-6.27,4.74,3.44,1.37,5.78,3.13,7.05,5.28,1.29,2.12,1.94,5.3,1.94,9.56,0,11.68-5,17.52-15,17.52h-11.21v-63.64ZM510.65,325.11c3.32,0,5.63-.77,6.92-2.31,1.29-1.62,1.94-4.47,1.94-8.53,0-6.87-2.47-10.3-7.42-10.3h-1.03c-.22,0-.36.01-.41.04v21.1ZM510.65,353.39c3.52,0,5.95-.76,7.3-2.27,1.35-1.51,2.02-4.25,2.02-8.2s-.7-6.91-2.1-8.53c-1.37-1.65-3.78-2.47-7.21-2.47v21.47Z"/>
              <path class="cls-12" d="M541.12,297.08h11.29c4.67,0,8.15,1.11,10.43,3.34,2.89,2.89,4.33,7.3,4.33,13.23,0,4.56-.76,8.22-2.29,10.98-1.52,2.76-3.7,4.47-6.53,5.13l11.71,30.95h-8.7l-11.67-31.16v31.16h-8.57v-63.64ZM549.69,325.27c3.32,0,5.67-.77,7.05-2.31s2.06-4.14,2.06-7.79c0-1.98-.14-3.67-.43-5.07s-.74-2.54-1.36-3.42c-.62-.88-1.42-1.52-2.39-1.94-.98-.41-2.14-.62-3.48-.62h-1.44v21.15Z"/>
              <path class="cls-12" d="M580.49,297.08h22.79v7.25h-14.22v20.16h12.61v7.25h-12.61v21.72h14.22v7.25h-22.79v-63.64Z"/>
              <path class="cls-12" d="M610.17,297.08h8.29l4.33,29.55.7,4.37c.33,2.36.58,4.52.74,6.47l.45,5.4c.03.14.05.38.08.74.03.36.07.81.12,1.36l.21-2.06c.33-3.6.68-6.91,1.05-9.93.37-3.02.78-5.81,1.22-8.37l4.58-27.53h6.59l4.29,26.75c.63,3.96,1.16,7.63,1.59,11.01.43,3.38.78,6.61,1.05,9.69.27-3.24.58-6.37.93-9.4.34-3.02.71-5.99,1.09-8.9l.62-4.25,3.67-24.9h8.2l-11.25,63.64h-6.68l-4.49-27.49c-.03-.11-.1-.56-.21-1.36-.11-.8-.27-1.94-.49-3.42l-.87-6.35c-.06-.49-.14-1.24-.27-2.23-.12-.99-.25-2.24-.39-3.75l-.21-2.64c-.06.63-.11,1.18-.17,1.65-.05.47-.1.85-.12,1.15-.14,1.81-.25,3.22-.35,4.23-.1,1-.16,1.61-.19,1.83l-.87,6.1c-.19,1.4-.34,2.5-.45,3.3-.11.8-.19,1.29-.25,1.48l-4.66,27.49h-6.88l-11-63.64Z"/>
            </g>
            <g>
              <path class="cls-12" d="M502.48,373.33h10.84c8.48,0,12.72,5.27,12.72,15.8,0,4.02-.55,7.01-1.65,8.96-1.1,1.95-3.05,3.42-5.84,4.42,3.2,1.28,5.4,2.92,6.57,4.92,1.2,1.97,1.81,4.95,1.81,8.92,0,10.89-4.67,16.34-13.99,16.34h-10.46v-59.36ZM510.01,399.47c3.1,0,5.25-.72,6.46-2.15,1.2-1.51,1.81-4.16,1.81-7.96,0-6.41-2.31-9.61-6.92-9.61h-.96c-.21,0-.33.01-.38.04v19.68ZM510.01,425.84c3.28,0,5.55-.7,6.8-2.11,1.26-1.41,1.88-3.96,1.88-7.65s-.65-6.45-1.96-7.96c-1.28-1.54-3.52-2.31-6.73-2.31v20.03Z"/>
              <path class="cls-12" d="M530.71,373.33h8v52.59h13.07v6.77h-21.07v-59.36Z"/>
              <path class="cls-12" d="M582.32,404.47c0,10.48-1.17,17.93-3.5,22.34-2.33,4.41-6.24,6.61-11.73,6.61-5.77,0-9.83-2.37-12.19-7.11-2.33-4.64-3.5-12.88-3.5-24.72,0-10.56,1.15-18.03,3.46-22.41,2.33-4.41,6.28-6.61,11.84-6.61,4.97,0,8.66,1.71,11.07,5.11,1.59,2.28,2.74,5.52,3.46,9.73.72,3.9,1.08,9.59,1.08,17.07ZM573.94,405.31c0-10.28-.46-17.09-1.38-20.45-.92-3.38-2.81-5.07-5.65-5.07s-4.74,1.55-5.69,4.65c-.92,3.13-1.38,9.41-1.38,18.84,0,8.69.49,14.71,1.46,18.07,1,3.18,2.87,4.77,5.61,4.77s4.54-1.49,5.54-4.46c1-2.95,1.5-8.39,1.5-16.34Z"/>
              <path class="cls-12" d="M615.78,404.47c0,10.48-1.17,17.93-3.5,22.34-2.33,4.41-6.24,6.61-11.73,6.61-5.77,0-9.83-2.37-12.19-7.11-2.33-4.64-3.5-12.88-3.5-24.72,0-10.56,1.15-18.03,3.46-22.41,2.33-4.41,6.28-6.61,11.84-6.61,4.97,0,8.66,1.71,11.07,5.11,1.59,2.28,2.74,5.52,3.46,9.73.72,3.9,1.08,9.59,1.08,17.07ZM607.4,405.31c0-10.28-.46-17.09-1.38-20.45-.92-3.38-2.81-5.07-5.65-5.07s-4.74,1.55-5.69,4.65c-.92,3.13-1.38,9.41-1.38,18.84,0,8.69.49,14.71,1.46,18.07,1,3.18,2.87,4.77,5.61,4.77s4.54-1.49,5.54-4.46c1-2.95,1.5-8.39,1.5-16.34Z"/>
              <path class="cls-12" d="M622.34,373.33h6.84l5.23,24.22c.64,3.02,1.22,6.06,1.75,9.09s1.01,6.22,1.44,9.55c.05-.44.09-.77.12-1.02.02-.24.05-.42.08-.52l1.12-6.8,1-6.46.88-4.27,4.65-23.8h6.92l5.46,59.36h-7.65l-1.35-20.14c-.05-1.02-.1-1.91-.13-2.65-.04-.74-.06-1.36-.06-1.85l-.35-7.96-.19-7.3c0-.05,0-.16-.02-.33-.01-.17-.03-.39-.06-.67l-.19,1.19c-.21,1.41-.39,2.64-.56,3.69-.17,1.05-.31,1.94-.44,2.65l-1,5.42-.38,2.04-5,25.91h-5.38l-4.69-22.37c-.64-2.95-1.21-5.94-1.71-8.98-.5-3.04-.96-6.22-1.37-9.55l-2.31,40.9h-7.53l4.88-59.36Z"/>
            </g>
          </g>
        </g>
      </g>
    </g>
  </g>
</svg>