<?xml version="1.0" encoding="UTF-8"?>
<svg id="Layer_2" data-name="Layer 2" xmlns="http://www.w3.org/2000/svg" viewBox="0 0 45 45">
  <defs>
    <style>
      .cls-1 {
        fill: #fff;
        stroke-width: 0px;
      }
    </style>
  </defs>
  <g id="Layer_1-2" data-name="Layer 1">
    <path class="cls-1" d="M22.5,0C10.07,0,0,10.07,0,22.5s10.07,22.5,22.5,22.5,22.5-10.07,22.5-22.5S34.93,0,22.5,0ZM35.03,14.81c0,.06,0,.22-.13.39-.57.77-1.19,1.46-1.96,2.04-.11.08-.3.17-.3.33,0,4.05-1.04,8.1-3.99,11.03-3.76,3.74-9.4,4.75-14.41,3.37-.97-.27-1.9-.64-2.79-1.12-.29-.16-.58-.33-.87-.51-.07-.06-.13-.11-.06-.15.06-.03.11-.03.33,0,1.4.14,2.84-.07,4.17-.53.73-.25,2.29-.77,2.75-1.46.01-.02.02-.02.03-.03-.18-.04-.37-.04-.55-.07-1.36-.39-3.18-1.07-4.02-3.37-.05-.13,0-.2.14-.18,1.12.09,1.52.03,1.91-.06-.22-.04-.44-.11-.65-.2-1.71-.65-2.97-2.32-3.2-4.13-.03-.21-.04-.39-.03-.58.01-.13.07-.18.19-.1.88.46,1.87.56,1.95.55-.22-.17-.42-.36-.62-.55-1.49-1.41-2.06-4.27-.87-6.06.1-.14.16-.14.28-.01,2.72,3.1,6.07,4.54,10.11,5.15.11.02.12,0,.1-.12-.11-.71-.12-1.41.05-2.11.18-.73.53-1.42,1-2,.46-.56,1.03-1.03,1.67-1.37.64-.34,1.35-.54,2.07-.59.74-.05,1.5.07,2.19.35.53.21.99.5,1.43.87.09.08.17.17.26.26.05.05.12.08.2.05,1.03-.26,2-.62,2.94-1.13.04-.02.08-.03.13-.01.04.03.03.09,0,.13-.17.55-.46,1.06-.82,1.5-.24.29-.82,1.01-1.22,1.08.84-.14,1.7-.36,2.48-.71.1-.05.1-.06.1,0v.02Z"/>
  </g>
</svg>