<?xml version="1.0" encoding="UTF-8"?>
<svg id="Layer_2" data-name="Layer 2" xmlns="http://www.w3.org/2000/svg" viewBox="0 0 45 45.01">
  <defs>
    <style>
      .cls-1 {
        fill: #fff;
        stroke-width: 0px;
      }
    </style>
  </defs>
  <g id="Layer_1-2" data-name="Layer 1">
    <g>
      <path class="cls-1" d="M22.5,0C10.07,0,0,10.08,0,22.5s10.07,22.51,22.5,22.51,22.5-10.08,22.5-22.51S34.93,0,22.5,0ZM35.69,27.74c0,4.37-3.55,7.92-7.92,7.92h-10.54c-4.37,0-7.92-3.55-7.92-7.92v-10.53c0-4.37,3.55-7.93,7.92-7.93h10.54c4.37,0,7.92,3.56,7.92,7.93v10.53Z"/>
      <path class="cls-1" d="M27.77,11.76h-10.54c-3,0-5.44,2.45-5.44,5.45v10.53c0,3,2.44,5.44,5.44,5.44h10.54c3,0,5.44-2.44,5.44-5.44v-10.53c0-3-2.44-5.45-5.44-5.45ZM22.61,28.97c-3.58,0-6.5-2.91-6.5-6.5s2.92-6.49,6.5-6.49,6.5,2.91,6.5,6.49-2.92,6.5-6.5,6.5ZM29.48,17.09c-.85,0-1.54-.7-1.54-1.55s.69-1.55,1.54-1.55,1.55.7,1.55,1.55-.69,1.55-1.55,1.55Z"/>
      <path class="cls-1" d="M26.77,22.47c0,2.3-1.87,4.17-4.16,4.17s-4.16-1.87-4.16-4.17,1.86-4.16,4.16-4.16,4.16,1.87,4.16,4.16Z"/>
    </g>
  </g>
</svg>