<?xml version="1.0" encoding="UTF-8"?>
<svg id="Layer_2" data-name="Layer 2" xmlns="http://www.w3.org/2000/svg" viewBox="0 0 311.35 546.55">
  <defs>
    <style>
      .cls-1 {
        fill: #dfba69;
      }

      .cls-1, .cls-2 {
        stroke-width: 0px;
      }

      .cls-2 {
        fill: #fcfcfc;
      }
    </style>
  </defs>
  <g>
    <path class="cls-2" d="M58.35,486.05v-19.75h6.44c2.06,0,3.68.45,4.84,1.34s1.75,2.23,1.75,4.01c0,.88-.28,1.66-.84,2.35-.56.69-1.3,1.2-2.21,1.54,1.19.25,2.13.84,2.81,1.75.68.91,1.02,1.98,1.02,3.19,0,1.81-.59,3.19-1.76,4.14-1.17.95-2.76,1.43-4.77,1.43h-7.3ZM61.03,474.7h4.33c.99,0,1.8-.27,2.43-.82.62-.55.94-1.31.94-2.29,0-1.07-.34-1.86-1.01-2.39-.67-.53-1.64-.79-2.91-.79h-3.77v6.29ZM61.03,476.8v7.15h4.62c1.21,0,2.16-.3,2.83-.9.68-.6,1.02-1.45,1.02-2.55,0-1.15-.28-2.06-.85-2.72-.56-.66-1.44-.99-2.61-.99h-5.02Z"/>
    <path class="cls-2" d="M88.66,476.89h-9.05v7.05h10.43v2.1h-13.1v-19.75h12.95v2.1h-10.28v6.39h9.05v2.1Z"/>
    <path class="cls-2" d="M104.76,481.08c0-.9-.34-1.65-1.02-2.26-.68-.61-1.88-1.12-3.61-1.53-2.09-.5-3.72-1.23-4.89-2.2-1.17-.97-1.76-2.19-1.76-3.66,0-1.54.63-2.83,1.89-3.86s2.9-1.55,4.9-1.55c2.16,0,3.88.59,5.16,1.78,1.28,1.18,1.9,2.56,1.85,4.12l-.03.08h-2.55c0-1.16-.38-2.09-1.15-2.81-.76-.71-1.86-1.07-3.29-1.07-1.33,0-2.35.3-3.06.9-.71.6-1.06,1.39-1.06,2.35,0,.86.38,1.58,1.15,2.15.77.57,2.02,1.08,3.74,1.51,2.08.52,3.66,1.27,4.75,2.28s1.63,2.25,1.63,3.73c0,1.59-.65,2.87-1.95,3.84-1.3.97-3,1.45-5.1,1.45-1.97,0-3.71-.54-5.23-1.61-1.51-1.07-2.25-2.5-2.2-4.29l.03-.08h2.55c0,1.27.47,2.23,1.4,2.89.93.66,2.08.99,3.46.99s2.41-.28,3.2-.85c.79-.57,1.18-1.34,1.18-2.31Z"/>
    <path class="cls-2" d="M125.53,468.4h-6.35v17.64h-2.67v-17.64h-6.33v-2.1h15.35v2.1Z"/>
    <path class="cls-2" d="M139.82,486.05h-2.69v-19.75h2.69v19.75Z"/>
    <path class="cls-2" d="M160.61,486.05h-2.67l-9.51-15.27-.08.03v15.24h-2.67v-19.75h2.67l9.51,15.24.08-.03v-15.22h2.67v19.75Z"/>
    <path class="cls-2" d="M187.44,468.4h-6.35v17.64h-2.67v-17.64h-6.33v-2.1h15.35v2.1Z"/>
    <path class="cls-2" d="M205.74,477.94c0,2.41-.75,4.42-2.24,6.01-1.5,1.59-3.44,2.39-5.82,2.39s-4.18-.8-5.62-2.39c-1.44-1.59-2.16-3.59-2.16-6.01v-3.51c0-2.4.72-4.41,2.16-6.01,1.44-1.6,3.32-2.4,5.62-2.4s4.33.8,5.82,2.39c1.5,1.6,2.24,3.6,2.24,6.01v3.51ZM203.07,474.4c0-1.81-.49-3.29-1.46-4.45s-2.29-1.74-3.93-1.74c-1.55,0-2.8.58-3.72,1.74s-1.39,2.64-1.39,4.45v3.54c0,1.83.46,3.32,1.39,4.48.93,1.16,2.17,1.74,3.72,1.74,1.65,0,2.97-.58,3.94-1.73.97-1.15,1.46-2.65,1.46-4.48v-3.54Z"/>
    <path class="cls-2" d="M214.52,479.21l.37,2.47h.08s.53-2.47.53-2.47l3.62-12.91h2.36l3.65,12.91.54,2.54h.08l.39-2.54,2.94-12.91h2.67l-4.76,19.75h-2.39l-3.89-13.7-.35-1.78h-.08l-.34,1.78-3.96,13.7h-2.39l-4.75-19.75h2.66l3.01,12.91Z"/>
    <path class="cls-2" d="M250.85,486.05h-2.67l-9.51-15.27-.08.03v15.24h-2.67v-19.75h2.67l9.51,15.24.08-.03v-15.22h2.67v19.75Z"/>
  </g>
  <path class="cls-1" d="M167.22,91.37c1.2,16.83-24.8,25.77-18.36,45.98,7.58-21.6,35.66-21.86,35.66-47.33s-24.4-29.38-27.62-43.09c-3.61-15.34,25.31-27.61,19.43-46.93-8.25,21.31-36.77,24.34-36.77,47.76s26.73,30.51,27.66,43.6ZM125.08,68.21c2.47,5.3,5.34,9.21,8.72,12.73,18.58,19.32,17.68,5.39,7.38,27.82-1.86,4.06-3.38,8.38-2.98,11.24,2.44-5.85,7.09-10.83,10.95-15.42,10.57-12.58,6.86-14.68-2.39-22.79-4.48-3.93-9.76-8.75-13.35-15.01-8.72-15.2-5.98-31.91,1.73-42.43-6.29,1.52-19.88,22.84-10.06,43.87ZM248.3,161.23c.25-3.66.41-7.4.41-11.27H60.5c0,115.05,113.86,140.6,164.46,76.66,78.37-3.39,61.86-77.49,23.34-65.39ZM154.59,242.55c-32.78,0-67.8-23.39-74.58-74.26h20.85c.8,41.06,25.72,66.74,53.74,74.25,0,0,0,0,0,0h0ZM231.08,217.96c7.74-12.34,13.34-27.36,15.96-45.02,22.42-7.21,41.52,35.18-15.96,45.02Z"/>
  <polygon class="cls-2" points="311.35 546.55 0 546.55 0 89.46 91.59 89.46 91.59 100.46 11 100.46 11 535.55 300.35 535.55 300.35 100.46 219.77 100.46 219.77 89.46 311.35 89.46 311.35 546.55"/>
  <g>
    <path class="cls-2" d="M57.67,284.73h14.32c11.21,0,16.81,6.96,16.81,20.87,0,5.32-.73,9.26-2.18,11.83-1.46,2.57-4.03,4.52-7.72,5.84,4.23,1.69,7.13,3.86,8.68,6.5,1.59,2.61,2.39,6.53,2.39,11.78,0,14.39-6.16,21.58-18.48,21.58h-13.81v-78.41ZM67.62,319.26c4.1,0,6.94-.95,8.53-2.84,1.59-2,2.39-5.5,2.39-10.51,0-8.46-3.05-12.7-9.14-12.7h-1.27c-.27,0-.44.02-.51.05v26ZM67.62,354.09c4.33,0,7.33-.93,8.99-2.79,1.66-1.86,2.49-5.23,2.49-10.11s-.86-8.51-2.59-10.51c-1.69-2.03-4.66-3.05-8.89-3.05v26.46Z"/>
    <path class="cls-2" d="M105.15,284.73h13.91c5.75,0,10.04,1.37,12.85,4.11,3.55,3.55,5.33,8.99,5.33,16.3,0,5.62-.94,10.13-2.82,13.53s-4.56,5.51-8.05,6.32l14.42,38.14h-10.71l-14.37-38.39v38.39h-10.56v-78.41ZM115.72,319.46c4.1,0,6.99-.95,8.68-2.84,1.69-1.9,2.54-5.09,2.54-9.6,0-2.44-.18-4.52-.53-6.25s-.91-3.13-1.68-4.21c-.76-1.08-1.74-1.88-2.95-2.39-1.2-.51-2.63-.76-4.29-.76h-1.78v26.05Z"/>
    <path class="cls-2" d="M153.66,284.73h28.08v8.94h-17.52v24.83h15.54v8.94h-15.54v26.76h17.52v8.94h-28.08v-78.41Z"/>
    <path class="cls-2" d="M190.23,284.73h10.21l5.33,36.41.86,5.38c.41,2.91.71,5.57.91,7.97l.56,6.65c.03.17.07.47.1.91.03.44.08,1,.15,1.68l.25-2.54c.41-4.43.84-8.51,1.29-12.24.46-3.72.96-7.16,1.5-10.31l5.64-33.92h8.12l5.28,32.96c.78,4.88,1.43,9.39,1.96,13.56.52,4.16.96,8.14,1.29,11.93.34-3.99.72-7.85,1.14-11.58.42-3.72.87-7.38,1.35-10.97l.76-5.23,4.52-30.67h10.11l-13.86,78.41h-8.23l-5.54-33.87c-.03-.13-.12-.69-.25-1.68-.14-.98-.34-2.39-.61-4.21l-1.07-7.82c-.07-.61-.18-1.52-.33-2.74s-.31-2.76-.48-4.62l-.25-3.25c-.07.78-.14,1.46-.2,2.03-.07.58-.12,1.05-.15,1.42-.17,2.23-.31,3.97-.43,5.21-.12,1.24-.2,1.99-.23,2.26l-1.07,7.52c-.24,1.73-.42,3.08-.56,4.06-.14.98-.24,1.59-.3,1.83l-5.74,33.87h-8.48l-13.56-78.41Z"/>
  </g>
  <g>
    <path class="cls-2" d="M57.54,378.66h13.36c10.45,0,15.68,6.49,15.68,19.47,0,4.96-.68,8.64-2.04,11.04-1.36,2.4-3.76,4.22-7.2,5.45,3.95,1.58,6.65,3.6,8.1,6.06,1.48,2.43,2.23,6.09,2.23,10.99,0,13.42-5.75,20.13-17.24,20.13h-12.88v-73.13ZM66.83,410.87c3.82,0,6.47-.88,7.96-2.65,1.48-1.86,2.23-5.13,2.23-9.8,0-7.89-2.84-11.84-8.53-11.84h-1.18c-.25,0-.41.02-.47.05v24.25ZM66.83,443.36c4.04,0,6.83-.87,8.38-2.6,1.55-1.74,2.32-4.88,2.32-9.43s-.8-7.94-2.42-9.8c-1.58-1.89-4.34-2.84-8.29-2.84v24.68Z"/>
    <path class="cls-2" d="M92.33,378.66h9.85v64.79h16.1v8.34h-25.96v-73.13Z"/>
    <path class="cls-2" d="M155.91,417.03c0,12.92-1.44,22.09-4.31,27.52s-7.69,8.15-14.45,8.15c-7.1,0-12.11-2.92-15.01-8.76-2.87-5.71-4.31-15.87-4.31-30.45,0-13.01,1.42-22.21,4.26-27.61,2.87-5.43,7.74-8.15,14.59-8.15,6.12,0,10.67,2.1,13.64,6.3,1.96,2.81,3.38,6.8,4.26,11.98.88,4.8,1.33,11.81,1.33,21.03ZM145.59,418.07c0-12.66-.57-21.06-1.71-25.2-1.14-4.17-3.46-6.25-6.96-6.25s-5.84,1.91-7.01,5.73c-1.14,3.85-1.71,11.59-1.71,23.21,0,10.7.6,18.12,1.8,22.26,1.23,3.92,3.54,5.87,6.92,5.87s5.59-1.83,6.82-5.49c1.23-3.63,1.85-10.34,1.85-20.13Z"/>
    <path class="cls-2" d="M197.14,417.03c0,12.92-1.44,22.09-4.31,27.52s-7.69,8.15-14.45,8.15c-7.1,0-12.11-2.92-15.01-8.76-2.87-5.71-4.31-15.87-4.31-30.45,0-13.01,1.42-22.21,4.26-27.61,2.87-5.43,7.73-8.15,14.59-8.15,6.12,0,10.67,2.1,13.64,6.3,1.96,2.81,3.38,6.8,4.26,11.98.88,4.8,1.33,11.81,1.33,21.03ZM186.82,418.07c0-12.66-.57-21.06-1.71-25.2-1.14-4.17-3.46-6.25-6.96-6.25s-5.84,1.91-7.01,5.73c-1.14,3.85-1.71,11.59-1.71,23.21,0,10.7.6,18.12,1.8,22.26,1.23,3.92,3.54,5.87,6.92,5.87s5.59-1.83,6.82-5.49c1.23-3.63,1.85-10.34,1.85-20.13Z"/>
    <path class="cls-2" d="M205.21,378.66h8.43l6.44,29.84c.79,3.73,1.51,7.46,2.16,11.2.65,3.74,1.24,7.67,1.78,11.77.06-.54.11-.96.14-1.26.03-.3.06-.51.09-.64l1.38-8.38,1.23-7.96,1.09-5.26,5.73-29.32h8.53l6.73,73.13h-9.43l-1.66-24.82c-.06-1.26-.12-2.35-.17-3.27s-.07-1.67-.07-2.27l-.43-9.8-.24-9c0-.06,0-.2-.02-.4-.02-.21-.04-.48-.07-.83l-.24,1.47c-.25,1.74-.48,3.25-.69,4.55s-.39,2.38-.54,3.27l-1.23,6.68-.47,2.51-6.16,31.92h-6.63l-5.78-27.57c-.79-3.63-1.49-7.32-2.11-11.06-.62-3.74-1.18-7.66-1.68-11.77l-2.84,50.39h-9.28l6.02-73.13Z"/>
  </g>
</svg>